<?xml version="1.0" encoding="UTF-8" standalone="no"?>
<!-- Generator: Adobe Illustrator 16.0.0, SVG Export Plug-In . SVG Version: 6.00 Build 0)  -->

<svg
   xmlns:dc="http://purl.org/dc/elements/1.1/"
   xmlns:cc="http://creativecommons.org/ns#"
   xmlns:rdf="http://www.w3.org/1999/02/22-rdf-syntax-ns#"
   xmlns:svg="http://www.w3.org/2000/svg"
   xmlns="http://www.w3.org/2000/svg"
   xmlns:sodipodi="http://sodipodi.sourceforge.net/DTD/sodipodi-0.dtd"
   xmlns:inkscape="http://www.inkscape.org/namespaces/inkscape"
   version="1.1"
   id="Capa_1"
   x="0px"
   y="0px"
   width="48"
   height="48"
   viewBox="0 0 32.00016 32.00016"
   xml:space="preserve"
   sodipodi:docname="eventActions.svg"
   inkscape:version="0.92.4 (5da689c313, 2019-01-14)"><metadata
   id="metadata65"><rdf:RDF><cc:Work
       rdf:about=""><dc:format>image/svg+xml</dc:format><dc:type
         rdf:resource="http://purl.org/dc/dcmitype/StillImage" /><dc:title></dc:title></cc:Work></rdf:RDF></metadata><defs
   id="defs63" /><sodipodi:namedview
   pagecolor="#ffffff"
   bordercolor="#666666"
   borderopacity="1"
   objecttolerance="10"
   gridtolerance="10"
   guidetolerance="10"
   inkscape:pageopacity="0"
   inkscape:pageshadow="2"
   inkscape:window-width="1920"
   inkscape:window-height="1001"
   id="namedview61"
   showgrid="false"
   inkscape:zoom="10.24"
   inkscape:cx="72.507419"
   inkscape:cy="19.907688"
   inkscape:window-x="1911"
   inkscape:window-y="-9"
   inkscape:window-maximized="1"
   inkscape:current-layer="g28" />
<g
   id="g28"
   transform="translate(0,-500.29102)">
	<g
   id="g6"
   transform="matrix(0.0645251,0,0,0.05836346,-1.6058202,500.31358)">
		<path
   d="m 256.08,417.128 c -18.09,0 -28.625,17.209 -28.625,40.21 0,23.183 10.885,39.52 28.795,39.52 18.09,0 28.447,-17.209 28.447,-40.216 0.005,-21.25 -10.175,-39.514 -28.617,-39.514 z"
   id="path2"
   inkscape:connector-curvature="0" />
		<path
   d="m 472.929,131.39 c -0.031,-2.514 -0.829,-4.997 -2.556,-6.96 L 364.656,3.677 C 364.635,3.643 364.603,3.633 364.572,3.602 363.942,2.898 363.218,2.318 362.44,1.806 362.21,1.657 361.978,1.523 361.737,1.387 361.054,1.022 360.35,0.72 359.616,0.499 359.416,0.441 359.239,0.36 359.039,0.308 358.231,0.113 357.411,0 356.572,0 H 96.757 C 84.904,0 75.255,9.649 75.255,21.502 V 526.79 c 0,11.858 9.649,21.501 21.502,21.501 h 354.775 c 11.863,0 21.503,-9.643 21.503,-21.501 V 132.595 c 10e-4,-0.404 -0.064,-0.8 -0.106,-1.205 z M 195.477,516.164 h -73.93 V 397.812 h 26.867 v 95.88 h 47.063 z m 59.376,1.937 c -35.124,0 -55.667,-26.515 -55.667,-60.226 0,-35.481 22.651,-61.996 57.596,-61.996 36.355,0 56.198,27.219 56.198,59.886 0,38.803 -23.528,62.336 -58.127,62.336 z m 174.58,-7.375 c -8.263,2.808 -23.884,6.672 -39.518,6.672 -21.596,0 -37.229,-5.443 -48.115,-15.979 -10.889,-10.188 -16.856,-25.643 -16.683,-43.028 0.177,-39.335 28.792,-61.817 67.611,-61.817 15.276,0 27.041,2.992 32.835,5.794 l -5.617,21.43 c -6.492,-2.814 -14.571,-5.093 -27.569,-5.093 -22.305,0 -39.161,12.647 -39.161,38.279 0,24.408 15.282,38.813 37.234,38.813 6.142,0 11.056,-0.704 13.166,-1.753 v -24.762 h -18.258 v -20.897 h 44.074 v 62.341 z M 96.757,365.081 V 21.502 H 345.82 v 110.011 c 0,5.935 4.81,10.751 10.752,10.751 h 94.961 l 0.011,222.816 H 96.757 Z"
   id="path4"
   inkscape:connector-curvature="0" />
	</g>
	
<path
   id="path3793"
   d="m 19.622794,508.96419 h -3.664888 l 1.352896,-4.25351 c 0.127032,-0.4981 -0.238185,-0.98964 -0.736788,-0.98964 h -4.57317 c -0.381098,0 -0.705031,0.29164 -0.755844,0.68161 l -1.01626,7.86473 c -0.06035,0.47188 0.295351,0.89133 0.755843,0.89133 h 3.76969 l -1.46405,6.37371 c -0.114329,0.49809 0.254065,0.9667 0.739965,0.9667 0.266768,0 0.520833,-0.14419 0.660569,-0.39324 l 5.589431,-9.96198 c 0.29535,-0.52104 -0.06987,-1.17971 -0.657394,-1.17971 z"
   inkscape:connector-curvature="0"
   style="fill:currentColor;stroke-width:0.03225995" /></g>
<g
   id="g30"
   transform="translate(0,-500.29102)">
</g>
<g
   id="g32"
   transform="translate(0,-500.29102)">
</g>
<g
   id="g34"
   transform="translate(0,-500.29102)">
</g>
<g
   id="g36"
   transform="translate(0,-500.29102)">
</g>
<g
   id="g38"
   transform="translate(0,-500.29102)">
</g>
<g
   id="g40"
   transform="translate(0,-500.29102)">
</g>
<g
   id="g42"
   transform="translate(0,-500.29102)">
</g>
<g
   id="g44"
   transform="translate(0,-500.29102)">
</g>
<g
   id="g46"
   transform="translate(0,-500.29102)">
</g>
<g
   id="g48"
   transform="translate(0,-500.29102)">
</g>
<g
   id="g50"
   transform="translate(0,-500.29102)">
</g>
<g
   id="g52"
   transform="translate(0,-500.29102)">
</g>
<g
   id="g54"
   transform="translate(0,-500.29102)">
</g>
<g
   id="g56"
   transform="translate(0,-500.29102)">
</g>
<g
   id="g58"
   transform="translate(0,-500.29102)">
</g>
</svg>