<?xml version="1.0" encoding="UTF-8" standalone="no"?>
<!-- Generator: Adobe Illustrator 20.0.0, SVG Export Plug-In . SVG Version: 6.00 Build 0)  -->

<svg
   xmlns:dc="http://purl.org/dc/elements/1.1/"
   xmlns:cc="http://creativecommons.org/ns#"
   xmlns:rdf="http://www.w3.org/1999/02/22-rdf-syntax-ns#"
   xmlns:svg="http://www.w3.org/2000/svg"
   xmlns="http://www.w3.org/2000/svg"
   xmlns:xlink="http://www.w3.org/1999/xlink"
   xmlns:sodipodi="http://sodipodi.sourceforge.net/DTD/sodipodi-0.dtd"
   xmlns:inkscape="http://www.inkscape.org/namespaces/inkscape"
   version="1.1"
   id="Ebene_1"
   x="0px"
   y="0px"
   viewBox="0 0 26.715 24.227"
   style="enable-background:new 0 0 26.715 24.227;"
   xml:space="preserve"
   inkscape:version="0.91 r13725"
   sodipodi:docname="Active_Not_Ack.svg"><metadata
     id="metadata11"><rdf:RDF><cc:Work
         rdf:about=""><dc:format>image/svg+xml</dc:format><dc:type
           rdf:resource="http://purl.org/dc/dcmitype/StillImage" /><dc:title /></cc:Work></rdf:RDF></metadata><defs
     id="defs9"><linearGradient
       inkscape:collect="always"
       id="linearGradient4179"><stop
         style="stop-color:#a0a0a0;stop-opacity:1"
         offset="0"
         id="stop4181" /><stop
         style="stop-color:#e3e3e3;stop-opacity:1"
         offset="1"
         id="stop4183" /></linearGradient><linearGradient
       inkscape:collect="always"
       id="linearGradient4169"><stop
         style="stop-color:#e52424;stop-opacity:1"
         offset="0"
         id="stop4171" /><stop
         style="stop-color:#c80000;stop-opacity:0.5411765"
         offset="1"
         id="stop4173" /></linearGradient><linearGradient
       inkscape:collect="always"
       id="linearGradient4153"><stop
         style="stop-color:#e52424;stop-opacity:1"
         offset="0"
         id="stop4155" /><stop
         style="stop-color:#c80000;stop-opacity:0.5411765"
         offset="1"
         id="stop4157" /></linearGradient><linearGradient
       inkscape:collect="always"
       id="linearGradient3345"><stop
         style="stop-color:#e52424;stop-opacity:1"
         offset="0"
         id="stop3347" /><stop
         style="stop-color:#c80000;stop-opacity:0.5411765"
         offset="1"
         id="stop3349" /></linearGradient><linearGradient
       inkscape:collect="always"
       xlink:href="#linearGradient3345"
       id="linearGradient3351"
       x1="0.10265678"
       y1="24.124342"
       x2="26.665098"
       y2="0.025664169"
       gradientUnits="userSpaceOnUse" /><linearGradient
       inkscape:collect="always"
       xlink:href="#linearGradient4153"
       id="linearGradient4159"
       x1="0"
       y1="24.226999"
       x2="26.665098"
       y2="0.076992556"
       gradientUnits="userSpaceOnUse" /><linearGradient
       inkscape:collect="always"
       xlink:href="#linearGradient4169"
       id="linearGradient4175"
       x1="0.20713745"
       y1="24.190704"
       x2="26.6695"
       y2="0.21776807"
       gradientUnits="userSpaceOnUse" /><linearGradient
       inkscape:collect="always"
       xlink:href="#linearGradient4179"
       id="linearGradient4185"
       x1="26.495096"
       y1="0.054761231"
       x2="-3.0256757e-007"
       y2="24.226999"
       gradientUnits="userSpaceOnUse" /></defs><sodipodi:namedview
     pagecolor="#ffffff"
     bordercolor="#666666"
     borderopacity="1"
     objecttolerance="10"
     gridtolerance="10"
     guidetolerance="10"
     inkscape:pageopacity="0"
     inkscape:pageshadow="2"
     inkscape:window-width="942"
     inkscape:window-height="1155"
     id="namedview7"
     showgrid="false"
     inkscape:zoom="13.776134"
     inkscape:cx="12.09222"
     inkscape:cy="12.990172"
     inkscape:window-x="2880"
     inkscape:window-y="0"
     inkscape:window-maximized="0"
     inkscape:current-layer="Ebene_1" /><g
     id="Aknowledge"><path
       d="M10.765,13.227H9.347c-0.2,0-0.388,0.08-0.388,0.28v1.362c0,0.15,0.035,0.45,0.065,0.595l0.493,2.572   c0.03,0.147,0.2,0.44,0.35,0.44h0.425c0.152,0,0.333-0.292,0.362-0.44l0.477-2.602c0.028-0.145,0.077-0.415,0.077-0.565v-0.99   C10.96,13.67,10.9,13.477,10.765,13.227z M11.21,19.25c0-0.151-0.122-0.273-0.272-0.273H9.232c-0.15,0-0.272,0.122-0.272,0.273   v1.705c0,0.151,0.122,0.273,0.272,0.273h1.705c0.15,0,0.272-0.122,0.272-0.273L11.21,19.25L11.21,19.25z M11.21,19.25   c0-0.151-0.122-0.273-0.272-0.273H9.232c-0.15,0-0.272,0.122-0.272,0.273v1.705c0,0.151,0.122,0.273,0.272,0.273h1.705   c0.15,0,0.272-0.122,0.272-0.273L11.21,19.25L11.21,19.25z M10.765,13.227H9.347c-0.2,0-0.388,0.08-0.388,0.28v1.362   c0,0.15,0.035,0.45,0.065,0.595l0.493,2.572c0.03,0.147,0.2,0.44,0.35,0.44h0.425c0.152,0,0.333-0.292,0.362-0.44l0.477-2.602   c0.028-0.145,0.077-0.415,0.077-0.565v-0.99C10.96,13.67,10.9,13.477,10.765,13.227z M10.765,13.227H9.347   c-0.2,0-0.388,0.08-0.388,0.28v1.362c0,0.15,0.035,0.45,0.065,0.595l0.493,2.572c0.03,0.147,0.2,0.44,0.35,0.44h0.425   c0.152,0,0.333-0.292,0.362-0.44l0.477-2.602c0.028-0.145,0.077-0.415,0.077-0.565v-0.99C10.96,13.67,10.9,13.477,10.765,13.227z    M11.21,19.25c0-0.151-0.122-0.273-0.272-0.273H9.232c-0.15,0-0.272,0.122-0.272,0.273v1.705c0,0.151,0.122,0.273,0.272,0.273   h1.705c0.15,0,0.272-0.122,0.272-0.273L11.21,19.25L11.21,19.25z M20.003,22.402l-3.1-5.247c-1.142-0.175-2.21-0.54-3.157-1.073   l3.435,5.895H2.967l6.705-11.5C9.51,9.74,9.428,8.96,9.428,8.142c0-0.455,0.03-0.902,0.09-1.34C9.36,6.895,9.225,7.027,9.13,7.192   l-8.985,15.21c-0.195,0.338-0.193,0.847,0.002,1.182c0.195,0.337,0.552,0.642,0.943,0.642h17.968c0.39,0,0.747-0.305,0.943-0.642   C20.195,23.25,20.198,22.74,20.003,22.402z M10.765,13.227H9.347c-0.2,0-0.388,0.08-0.388,0.28v1.362   c0,0.15,0.035,0.45,0.065,0.595l0.493,2.572c0.03,0.147,0.2,0.44,0.35,0.44h0.425c0.152,0,0.333-0.292,0.362-0.44l0.477-2.602   c0.028-0.145,0.077-0.415,0.077-0.565v-0.99C10.96,13.67,10.9,13.477,10.765,13.227z M11.21,19.25c0-0.151-0.122-0.273-0.272-0.273   H9.232c-0.15,0-0.272,0.122-0.272,0.273v1.705c0,0.151,0.122,0.273,0.272,0.273h1.705c0.15,0,0.272-0.122,0.272-0.273L11.21,19.25   L11.21,19.25z M11.21,19.25c0-0.151-0.122-0.273-0.272-0.273H9.232c-0.15,0-0.272,0.122-0.272,0.273v1.705   c0,0.151,0.122,0.273,0.272,0.273h1.705c0.15,0,0.272-0.122,0.272-0.273L11.21,19.25L11.21,19.25z M10.765,13.227H9.347   c-0.2,0-0.388,0.08-0.388,0.28v1.362c0,0.15,0.035,0.45,0.065,0.595l0.493,2.572c0.03,0.147,0.2,0.44,0.35,0.44h0.425   c0.152,0,0.333-0.292,0.362-0.44l0.477-2.602c0.028-0.145,0.077-0.415,0.077-0.565v-0.99C10.96,13.67,10.9,13.477,10.765,13.227z    M18.573,0c-4.055,0-7.418,2.667-8.04,6.75c-0.07,0.447-0.105,0.913-0.105,1.393c0,1.15,0.177,2.188,0.503,3.107   c0.33,0.945,0.818,1.765,1.427,2.452c1.003,1.135,2.337,1.91,3.862,2.298c0.745,0.19,1.535,0.288,2.353,0.288   c4.497,0,8.142-3.648,8.142-8.145S23.07,0,18.573,0z M24.24,5.548l-7.122,7.122c-0.048,0.05-0.112,0.073-0.175,0.073   s-0.125-0.023-0.175-0.073l-1.595-1.595c-0.098-0.098-0.253-0.253-0.35-0.345l-1.92-1.925c-0.097-0.098-0.097-0.253,0-0.35   l1.595-1.595c0.05-0.05,0.112-0.072,0.175-0.072S14.8,6.81,14.847,6.86l1.92,1.92c0.05,0.048,0.113,0.072,0.177,0.072   c0.062,0,0.125-0.025,0.173-0.072l5.165-5.165c0.05-0.048,0.113-0.073,0.175-0.073s0.127,0.025,0.175,0.073l1.608,1.587   C24.337,5.295,24.337,5.452,24.24,5.548z"
       id="path4"
       style="fill:url(#linearGradient4185);fill-opacity:1" /></g><g
     id="Ebene_1_1_" /><path
     style="fill:url(#linearGradient3351);fill-opacity:1"
     d="M 0.79305617,24.147734 C 0.1534406,23.884445 -0.16433244,23.111886 0.1164502,22.502793 0.14898492,22.432217 2.0348671,19.2274 4.3072995,15.380979 6.579732,11.534558 8.6088081,8.0987642 8.8163575,7.7458815 9.1015419,7.261001 9.2281749,7.0705824 9.3347735,6.9663375 9.412353,6.890471 9.4815367,6.8341081 9.4885153,6.8410867 c 0.00698,0.00698 -0.00214,0.1210212 -0.020253,0.253428 -0.021653,0.1582469 -0.032469,0.5353453 -0.031565,1.1004902 0.00147,0.9202891 0.023741,1.1968348 0.1543999,1.9174721 l 0.06614,0.364789 -2.5852534,4.434416 C 5.6500948,17.35061 4.1432368,19.935091 3.7234109,20.654971 l -0.7633199,1.308874 3.5668338,0.0065 c 1.9617585,0.0036 5.1632232,0.0036 7.1143662,0 l 3.547533,-0.0065 -1.689017,-2.897848 c -0.928958,-1.593817 -1.684429,-2.902435 -1.678822,-2.908042 0.0056,-0.0056 0.139105,0.05446 0.296663,0.133478 0.745758,0.374011 1.708502,0.691575 2.505327,0.826388 l 0.269745,0.04564 1.568178,2.653684 c 1.046104,1.770228 1.584031,2.704622 1.615798,2.80669 0.09997,0.32119 0.04612,0.743392 -0.129757,1.017477 -0.116262,0.181179 -0.363056,0.405694 -0.534002,0.485796 l -0.14837,0.06952 -9.162118,0.0059 -9.162117,0.0059 -0.14727583,-0.06062 z"
     id="path3339"
     inkscape:connector-curvature="0" /><path
     style="fill:url(#linearGradient4175);fill-opacity:1"
     d="m 9.0570383,21.131864 -0.083813,-0.07489 0,-0.949996 0,-0.949995 0.075378,-0.07868 0.075378,-0.07868 0.9595801,0 0.95958,0 0.07502,0.07502 0.07502,0.07502 0,0.953523 0,0.953524 -0.07502,0.07502 -0.07502,0.07502 -0.951145,0 -0.9511442,0 -0.083813,-0.07489 z"
     id="path3341"
     inkscape:connector-curvature="0" /><path
     style="fill:url(#linearGradient4159);fill-opacity:1"
     d="M 9.74971,18.409929 C 9.7142222,18.382014 9.6490214,18.286736 9.6048192,18.198199 9.5354514,18.059256 9.4892881,17.852097 9.2675408,16.684651 9.12624,15.940736 8.9996247,15.218931 8.9861736,15.080639 c -0.0402,-0.4133 -0.032836,-1.557909 0.010694,-1.66209 0.068531,-0.164017 0.1002986,-0.169242 0.9829584,-0.161653 l 0.7895664,0.0068 0.109971,0.205092 c 0.06048,0.1128 0.156886,0.252894 0.214227,0.311319 l 0.104255,0.106228 -0.01101,0.638256 -0.01101,0.638256 -0.261655,1.41153 c -0.14391,0.776342 -0.27991,1.467561 -0.30222,1.536041 -0.02394,0.07347 -0.08491,0.170786 -0.148727,0.237394 l -0.108162,0.112884 -0.270413,0 c -0.230531,0 -0.2799278,-0.0075 -0.334935,-0.05075 z"
     id="path3343"
     inkscape:connector-curvature="0" /></svg>