<?xml version="1.0" encoding="UTF-8" standalone="no"?>
<!-- Generator: Adobe Illustrator 16.0.0, SVG Export Plug-In . SVG Version: 6.00 Build 0)  -->

<svg
   xmlns:dc="http://purl.org/dc/elements/1.1/"
   xmlns:cc="http://creativecommons.org/ns#"
   xmlns:rdf="http://www.w3.org/1999/02/22-rdf-syntax-ns#"
   xmlns:svg="http://www.w3.org/2000/svg"
   xmlns="http://www.w3.org/2000/svg"
   xmlns:sodipodi="http://sodipodi.sourceforge.net/DTD/sodipodi-0.dtd"
   xmlns:inkscape="http://www.inkscape.org/namespaces/inkscape"
   version="1.1"
   id="Ebene_1"
   x="0px"
   y="0px"
   width="698.33698"
   height="610.82001"
   viewBox="0 0 698.33698 610.82001"
   enable-background="new 0 0 690 700"
   xml:space="preserve"
   inkscape:version="0.91 r13725"
   sodipodi:docname="Coffeemachine.svg"><metadata
     id="metadata247"><rdf:RDF><cc:Work
         rdf:about=""><dc:format>image/svg+xml</dc:format><dc:type
           rdf:resource="http://purl.org/dc/dcmitype/StillImage" /><dc:title></dc:title></cc:Work></rdf:RDF></metadata><defs
     id="defs245" /><sodipodi:namedview
     pagecolor="#ffffff"
     bordercolor="#666666"
     borderopacity="1"
     objecttolerance="10"
     gridtolerance="10"
     guidetolerance="10"
     inkscape:pageopacity="0"
     inkscape:pageshadow="2"
     inkscape:window-width="1920"
     inkscape:window-height="1005"
     id="namedview243"
     showgrid="false"
     inkscape:zoom="2.0452372"
     inkscape:cx="342.89331"
     inkscape:cy="263.80779"
     inkscape:window-x="-9"
     inkscape:window-y="-9"
     inkscape:window-maximized="1"
     inkscape:current-layer="g31"
     inkscape:snap-global="true"
     fit-margin-top="0"
     fit-margin-left="0"
     fit-margin-right="0"
     fit-margin-bottom="0" /><path
     d="m 210.44799,398.98504 c 0,-34.671 0,-69.343 0,-103.988 0,-7.305 0.24027,-8.951 4.54059,-10.841 4.44409,-1.938 9.16095,-2.952 13.77244,-3.001 11.90244,-0.117 23.05254,6.192 34.18393,12.341 8.7641,4.89 17.71136,7.741 27.0338,6.364 7.44456,-1.139 14.21754,-5.059 20.30022,-12.462 1.36976,-1.67 3.65138,-2.707 5.24861,-2.128 2.22845,0.795 2.46183,4.741 2.46183,8.275 -0.003,70.066 0,140.134 -0.003,210.206 0,6.19 4.94827,18.23 1.20334,19.9 -12.60651,5.69 -31.03279,-0.4 -44.06372,1.533 -11.08511,1.691 -22.19583,1.962 -33.29078,0.045 -9.25253,-1.592 -19.36965,4.255 -28.63596,-0.379 -3.25946,-2.291 -2.84095,-16.265 -2.81732,-22.313 0.14082,-34.5 0.066,-69.024 0.066,-103.552 z"
     id="path3"
     inkscape:connector-curvature="0"
     style="clip-rule:evenodd;fill:#d5edf9;fill-rule:evenodd;stroke-width:0.9923358" /><rect
     x="211.53407"
     y="207.88904"
     stroke-miterlimit="10"
     width="107.701"
     height="316.961"
     id="rect5"
     style="clip-rule:evenodd;fill:none;fill-rule:evenodd;stroke:#575756;stroke-width:2;stroke-miterlimit:10" /><rect
     x="35.065002"
     y="445.23959"
     stroke-miterlimit="10"
     width="107.701"
     height="80.251869"
     id="rect7"
     ry="0"
     style="clip-rule:evenodd;fill:none;fill-rule:evenodd;stroke:#575756;stroke-width:2;stroke-miterlimit:10" /><rect
     x="451.82559"
     y="363.07346"
     stroke-miterlimit="10"
     width="7.8540001"
     height="18.646"
     id="rect15"
     style="clip-rule:evenodd;opacity:0.997;fill:#b2b2b2;fill-rule:evenodd;stroke:#575756;stroke-width:0.69999999;stroke-miterlimit:10" /><rect
     x="460.22961"
     y="363.07346"
     stroke-miterlimit="10"
     width="7.8569999"
     height="18.646"
     id="rect17"
     style="clip-rule:evenodd;opacity:0.997;fill:#b2b2b2;fill-rule:evenodd;stroke:#575756;stroke-width:0.69999999;stroke-miterlimit:10" /><g
     id="g19"
     display="none"
     style="display:none"
     transform="translate(3.497,-93.299533)"><path
       d="m 479.84,548.121 c 0.006,0.056 0,0.083 0.013,0.101 0.216,0.341 0.427,0.687 0.647,1.03 1.644,2.52 3.163,5.135 5.139,7.433 2.2,2.554 4.54,4.973 7.443,6.758 2.066,1.27 4.301,2.078 6.748,2.081 13.046,0.021 26.1,0.018 39.141,-0.003 0.704,0 1.414,-0.105 2.103,-0.25 2.2,-0.454 4.113,-1.529 5.86,-2.91 2.835,-2.241 5.322,-4.84 7.513,-7.706 1.59,-2.083 3.06,-4.254 4.584,-6.385 0.022,-0.039 0.032,-0.084 0.065,-0.158 -6.312,0 -12.578,0 -18.865,0 0.02,-0.079 0.02,-0.129 0.038,-0.17 0.853,-2.263 1.707,-4.524 2.577,-6.781 0.044,-0.112 0.186,-0.235 0.306,-0.268 3.593,-0.919 7.037,-2.219 10.33,-3.923 2.801,-1.44 5.401,-3.158 7.649,-5.379 2.868,-2.831 4.784,-6.146 5.139,-10.241 0.145,-1.696 -0.045,-3.354 -0.691,-4.943 -1.983,-4.847 -7.111,-7.487 -12.265,-6.341 -0.629,0.143 -1.249,0.308 -1.91,0.466 0.827,-4.871 1.108,-9.738 0.944,-14.624 -22.051,0 -44.081,0 -66.116,0 -0.011,0.059 -0.018,0.104 -0.018,0.146 -0.083,4.262 0.085,8.51 0.709,12.738 0.513,3.507 1.2,6.979 2.041,10.42 2.199,8.966 5.084,17.713 8.484,26.297 0.345,0.856 0.688,1.712 1.048,2.613 -6.249,-10e-4 -12.447,-10e-4 -18.656,-10e-4 z"
       id="path21"
       inkscape:connector-curvature="0"
       style="clip-rule:evenodd;fill:#ffffff;fill-rule:evenodd" /><path
       d="m 479.84,548.121 c 6.209,0 12.407,0 18.656,0 -0.36,-0.901 -0.703,-1.757 -1.048,-2.613 -3.4,-8.584 -6.285,-17.331 -8.484,-26.297 -0.841,-3.44 -1.528,-6.913 -2.041,-10.42 -0.624,-4.229 -0.792,-8.477 -0.709,-12.738 0,-0.041 0.007,-0.087 0.018,-0.146 22.035,0 44.065,0 66.116,0 0.164,4.886 -0.117,9.753 -0.944,14.624 0.661,-0.158 1.281,-0.323 1.91,-0.466 5.153,-1.146 10.281,1.494 12.265,6.341 0.646,1.59 0.836,3.247 0.691,4.943 -0.354,4.096 -2.271,7.41 -5.139,10.241 -2.248,2.221 -4.849,3.938 -7.649,5.379 -3.293,1.704 -6.737,3.004 -10.33,3.923 -0.12,0.032 -0.262,0.155 -0.306,0.268 -0.87,2.257 -1.725,4.519 -2.577,6.781 -0.019,0.041 -0.019,0.091 -0.038,0.17 6.287,0 12.554,0 18.865,0 -0.033,0.074 -0.043,0.119 -0.065,0.158 -1.524,2.131 -2.994,4.302 -4.584,6.385 -2.19,2.866 -4.678,5.465 -7.513,7.706 -1.747,1.381 -3.66,2.456 -5.86,2.91 -0.688,0.145 -1.398,0.25 -2.103,0.25 -13.041,0.021 -26.095,0.023 -39.141,0.003 -2.447,-0.003 -4.682,-0.812 -6.748,-2.081 -2.903,-1.785 -5.243,-4.204 -7.443,-6.758 -1.976,-2.298 -3.495,-4.913 -5.139,-7.433 -0.221,-0.344 -0.432,-0.689 -0.647,-1.03 -0.013,-0.017 -0.007,-0.044 -0.013,-0.1 z m 65.14,-45.246 c -17.161,0 -34.251,0 -51.364,0 0.059,0.67 0.098,1.322 0.181,1.963 0.302,2.309 0.56,4.622 0.936,6.914 0.619,3.745 1.467,7.445 2.443,11.115 2.282,8.545 5.223,16.854 8.724,24.974 0.106,0.244 0.231,0.284 0.463,0.284 8.624,-0.004 17.248,-0.004 25.872,0 0.236,0.006 0.355,-0.064 0.458,-0.291 2.43,-5.525 4.591,-11.154 6.364,-16.912 1.193,-3.881 2.201,-7.815 3.215,-11.749 0.531,-2.042 0.944,-4.118 1.329,-6.201 0.396,-2.146 0.713,-4.317 1.023,-6.485 0.169,-1.194 0.24,-2.394 0.356,-3.612 z m -0.838,52.307 c -0.02,-0.025 -0.038,-0.053 -0.051,-0.076 -16.575,0 -33.143,0 -49.768,0 0.073,0.066 0.108,0.11 0.15,0.136 1.201,0.875 2.376,1.78 3.606,2.61 0.788,0.532 1.694,0.727 2.665,0.727 12.539,-0.013 25.079,-0.006 37.612,-0.019 0.371,-0.004 0.771,-0.073 1.103,-0.236 0.645,-0.309 1.271,-0.671 1.858,-1.077 0.967,-0.661 1.886,-1.374 2.825,-2.065 z m 1.678,-22.345 c 0.053,-0.02 0.119,-0.036 0.182,-0.056 2.009,-0.784 3.954,-1.699 5.813,-2.802 1.955,-1.166 3.786,-2.51 5.285,-4.251 1.56,-1.814 2.453,-3.846 2.182,-6.3 -0.158,-1.461 -1.08,-2.438 -2.538,-2.58 -2.455,-0.246 -4.565,0.531 -6.35,2.197 -0.717,0.674 -1.242,1.463 -1.441,2.472 -0.234,1.144 -0.554,2.269 -0.871,3.397 -0.744,2.629 -1.503,5.263 -2.262,7.923 z"
       id="path23"
       inkscape:connector-curvature="0"
       style="clip-rule:evenodd;fill:#3c3c3b;fill-rule:evenodd" /><path
       d="m 544.98,502.875 c -0.116,1.218 -0.188,2.418 -0.356,3.611 -0.311,2.168 -0.628,4.339 -1.023,6.485 -0.385,2.083 -0.798,4.159 -1.329,6.201 -1.014,3.934 -2.021,7.868 -3.215,11.749 -1.773,5.758 -3.935,11.387 -6.364,16.912 -0.103,0.227 -0.222,0.297 -0.458,0.291 -8.624,-0.004 -17.248,-0.004 -25.872,0 -0.231,0 -0.356,-0.04 -0.463,-0.284 -3.501,-8.12 -6.441,-16.429 -8.724,-24.974 -0.977,-3.67 -1.824,-7.37 -2.443,-11.115 -0.376,-2.292 -0.634,-4.605 -0.936,-6.914 -0.083,-0.641 -0.122,-1.293 -0.181,-1.963 17.113,10e-4 34.203,10e-4 51.364,10e-4 z"
       id="path25"
       inkscape:connector-curvature="0"
       style="clip-rule:evenodd;fill:#ffffff;fill-rule:evenodd" /><path
       d="m 544.142,555.182 c -0.938,0.691 -1.857,1.404 -2.823,2.064 -0.587,0.406 -1.214,0.769 -1.858,1.077 -0.332,0.163 -0.731,0.232 -1.103,0.236 -12.533,0.013 -25.073,0.006 -37.612,0.019 -0.971,0 -1.877,-0.194 -2.665,-0.727 -1.23,-0.83 -2.405,-1.735 -3.606,-2.61 -0.042,-0.025 -0.077,-0.069 -0.15,-0.136 16.625,0 33.192,0 49.768,0 0.011,0.024 0.029,0.051 0.049,0.077 z"
       id="path27"
       inkscape:connector-curvature="0"
       style="clip-rule:evenodd;fill:#ffffff;fill-rule:evenodd" /><path
       d="m 545.82,532.837 c 0.759,-2.66 1.518,-5.294 2.261,-7.922 0.317,-1.129 0.637,-2.254 0.871,-3.397 0.199,-1.009 0.725,-1.798 1.441,-2.472 1.784,-1.666 3.895,-2.443 6.35,-2.197 1.458,0.142 2.38,1.119 2.538,2.58 0.271,2.454 -0.622,4.485 -2.182,6.3 -1.499,1.741 -3.33,3.085 -5.285,4.251 -1.858,1.103 -3.804,2.018 -5.813,2.802 -0.062,0.019 -0.128,0.035 -0.181,0.055 z"
       id="path29"
       inkscape:connector-curvature="0"
       style="clip-rule:evenodd;fill:#ffffff;fill-rule:evenodd" /></g><g
     id="g31"
     transform="translate(-59.222631,-93.991)"><path
       stroke-miterlimit="10"
       d="M 284.8,704.811 M 753.941,93.991 M 399.088,278.883 c -2.582,0.148 -4.858,0.387 -7.132,0.381 -3.558,-0.009 -7.118,-0.23 -10.673,-0.268 -1.426,-0.017 -2.186,0.856 -2.195,2.949 -0.037,6.623 -0.295,13.244 -0.296,19.868 -0.023,68.095 -0.023,136.192 0,204.293 0.001,6.415 0.293,12.83 0.296,19.243 0,6.026 -0.29,12.052 -0.3,18.083 -0.041,23.76 -0.021,47.515 -0.021,71.276 0,4.285 0.507,4.927 3.874,4.927 91.089,0 182.183,0 273.271,0 3.624,0 4.05,-0.543 4.05,-5.31 0,-35.85 -0.01,-71.707 -0.013,-107.557 0,-69.392 0.003,-138.781 0.003,-208.169 0,-5.168 0.006,-10.336 0,-15.501 -0.003,-1.898 -0.229,-3.847 -2.019,-3.967 -3.181,-0.22 -6.381,-0.193 -9.571,-0.153 -2.193,0.026 -4.386,0.248 -6.579,0.386 -1.289,0.08 -2.194,-0.219 -2.17,-2.385 0.045,-4.966 -0.093,-9.934 -0.093,-14.899 0.017,-18.291 0.267,-36.585 0.025,-54.87 -0.201,-14.789 -8.973,-25.478 -20.299,-25.496 -20.385,-0.036 -40.776,-0.037 -61.157,-0.002 -11.181,0.02 -20.059,10.769 -20.256,25.267 -0.267,19.875 -0.076,39.763 -0.084,59.646 0,4.012 0,8.023 0,12.386 -12.468,0 -24.64,0 -37.133,0 0.122,-2.896 0.328,-5.428 0.331,-7.965 0.021,-20.677 0.013,-41.354 0.006,-62.031 -0.003,-16.208 -8.548,-27.301 -21.043,-27.31 -20.004,-0.012 -40.01,-0.012 -60.015,10e-4 -12.153,0.007 -20.784,11.195 -20.803,27.039 -0.035,18.888 -0.006,37.775 -0.006,56.665 0.002,4.358 0.002,8.716 0.002,13.473 z"
       id="path33"
       inkscape:connector-curvature="0"
       style="clip-rule:evenodd;fill:none;fill-rule:evenodd;stroke:#575756;stroke-miterlimit:10" /><path
       d="m 399.088,278.883 c 0,-4.757 0,-9.115 0,-13.472 0,-18.89 -0.029,-37.777 0.006,-56.665 0.019,-15.844 8.649,-27.032 20.803,-27.039 20.005,-0.013 40.011,-0.013 60.015,-0.001 12.495,0.009 21.04,11.102 21.043,27.31 0.007,20.678 0.016,41.354 -0.006,62.031 -0.003,2.537 -0.209,5.068 -0.331,7.965 12.493,0 24.665,0 37.133,0 0,-4.363 0,-8.374 0,-12.386 0.008,-19.883 -0.183,-39.771 0.084,-59.646 0.197,-14.499 9.075,-25.247 20.256,-25.267 20.381,-0.035 40.772,-0.033 61.157,0.002 11.326,0.018 20.098,10.707 20.299,25.496 0.241,18.285 -0.009,36.58 -0.025,54.87 0,4.965 0.138,9.933 0.093,14.899 -0.024,2.166 0.881,2.465 2.17,2.385 2.193,-0.138 4.386,-0.359 6.579,-0.386 3.19,-0.04 6.391,-0.066 9.571,0.153 1.789,0.121 2.016,2.069 2.019,3.967 0.006,5.165 0,10.333 0,15.501 0,69.388 -0.003,138.778 -0.003,208.169 0.003,35.85 0.013,71.707 0.013,107.557 0,4.767 -0.426,5.31 -4.05,5.31 -91.088,0 -182.182,0 -273.271,0 -3.367,0 -3.874,-0.642 -3.874,-4.927 0,-23.762 -0.021,-47.517 0.021,-71.276 0.01,-6.031 0.3,-12.057 0.3,-18.083 -0.003,-6.413 -0.295,-12.828 -0.296,-19.243 -0.023,-68.101 -0.023,-136.198 0,-204.293 0.001,-6.624 0.259,-13.245 0.296,-19.868 0.01,-2.093 0.77,-2.966 2.195,-2.949 3.555,0.038 7.115,0.259 10.673,0.268 2.271,0.006 4.548,-0.234 7.13,-0.382 z m -15.267,284.698 c 1.373,0 2.356,0 3.338,0 88.479,0 176.96,0 265.438,0 0.46,0 0.923,-0.066 1.373,0.006 1.56,0.252 2.11,-0.514 2.105,-2.644 -0.07,-13.664 -0.637,-46.104 -0.637,-59.76 0,-66.997 0,-133.991 0,-200.984 0,-5.028 0,-10.059 0,-15.342 -90.816,0 -181.416,0 -272.217,0 0.002,86.798 0.6,191.916 0.6,278.724 z m 271.008,6.001 c -90.406,0 -180.598,0 -270.804,0 0,21.105 -0.593,23.16 -0.593,44.072 90.334,0 180.532,0 270.808,0 0,-21.024 0.589,-23.008 0.589,-44.072 z M 634.952,278.934 c 0.11,-0.778 0.202,-1.16 0.202,-1.538 0.007,-23.452 0.173,-46.906 -0.063,-70.355 -0.116,-11.31 -6.997,-19.417 -15.656,-19.426 -20.531,-0.026 -41.063,-0.028 -61.595,0 -8.698,0.011 -15.522,8.652 -15.556,19.877 -0.063,22.953 0.013,45.91 -0.058,68.866 -0.006,2.521 0.78,3.086 2.425,3.015 4.023,-0.178 8.041,-0.413 12.065,-0.419 25.112,-0.038 50.223,-0.019 75.33,-0.019 0.909,-10e-4 1.821,-10e-4 2.906,-10e-4 z m -138.483,0.09 c 0,-7.682 0,-14.879 0,-22.079 -0.003,-16.397 0.041,-32.791 -0.019,-49.186 -0.041,-11.446 -6.795,-20.136 -15.589,-20.146 -20.453,-0.026 -40.908,-0.024 -61.359,0 -9.309,0.01 -15.959,8.728 -15.969,20.933 -0.021,22.457 0,44.912 0.007,67.369 0,0.948 0.073,1.896 0.12,3.108 30.987,10e-4 61.706,10e-4 92.809,10e-4 z"
       id="path35"
       inkscape:connector-curvature="0"
       style="clip-rule:evenodd;fill:#575756;fill-rule:evenodd" /><path
       stroke-miterlimit="10"
       d="m 655.361,567.721 c 0,21.067 0,24.909 0,45.934 -90.649,0 -181.221,0 -271.929,0 0,-20.912 0,-24.827 0,-45.934 90.577,0 181.14,0 271.929,0 z"
       id="path37"
       inkscape:connector-curvature="0"
       style="clip-rule:evenodd;fill:#dadada;fill-rule:evenodd;stroke:#575756;stroke-miterlimit:10" /><path
       stroke-miterlimit="10"
       d="m 634.952,278.934 c -1.085,0 -1.997,0 -2.905,0 -25.107,0 -50.218,-0.019 -75.33,0.019 -4.024,0.006 -8.042,0.242 -12.065,0.419 -1.645,0.071 -2.431,-0.493 -2.425,-3.015 0.07,-22.956 -0.006,-45.914 0.058,-68.866 0.033,-11.225 6.857,-19.866 15.556,-19.877 20.532,-0.028 41.063,-0.026 61.595,0 8.659,0.01 15.54,8.116 15.656,19.426 0.236,23.449 0.07,46.904 0.063,70.355 -10e-4,0.378 -0.092,0.76 -0.203,1.539 z"
       id="path39"
       inkscape:connector-curvature="0"
       style="clip-rule:evenodd;fill:#634e42;fill-rule:evenodd;stroke:#575756;stroke-miterlimit:10" /><path
       d="m 496.469,279.024 c -31.103,0 -61.821,0 -92.809,0 -0.047,-1.212 -0.12,-2.16 -0.12,-3.108 -0.007,-22.457 -0.027,-44.912 -0.007,-67.369 0.01,-12.206 6.66,-20.923 15.969,-20.933 20.451,-0.024 40.906,-0.026 61.359,0 8.794,0.01 15.548,8.7 15.589,20.146 0.06,16.395 0.016,32.789 0.019,49.186 0,7.199 0,14.396 0,22.078 z"
       id="path41"
       inkscape:connector-curvature="0"
       style="clip-rule:evenodd;fill:#ffffff;fill-rule:evenodd;fill-opacity:1" /><path
       stroke-miterlimit="10"
       d="m 442.656,332.508 c 4.995,0 9.76,0 14.613,0 0,-5.867 0,-11.543 0,-17.168 -4.974,0 -9.739,0 -14.613,0 0,5.769 0,11.306 0,17.168 z"
       id="path43"
       inkscape:connector-curvature="0"
       style="clip-rule:evenodd;fill:none;fill-rule:evenodd;stroke:#575756;stroke-miterlimit:10" /><path
       stroke-miterlimit="10"
       d="m 457.305,398.386 c 0,-5.934 0,-11.612 0,-17.386 -4.933,0 -9.693,0 -14.605,0 0,5.846 0,11.529 0,17.386 4.89,0 9.654,0 14.605,0 z"
       id="path45"
       inkscape:connector-curvature="0"
       style="clip-rule:evenodd;fill:none;fill-rule:evenodd;stroke:#575756;stroke-miterlimit:10" /><path
       stroke-miterlimit="10"
       d="m 596.025,398.503 c 0,-6.001 0,-11.69 0,-17.426 -4.999,0 -9.831,0 -14.687,0 0,5.866 0,11.498 0,17.426 4.885,0 9.646,0 14.687,0 z"
       id="path47"
       inkscape:connector-curvature="0"
       style="clip-rule:evenodd;fill:none;fill-rule:evenodd;stroke:#575756;stroke-miterlimit:10" /><path
       stroke-miterlimit="10"
       d="m 553.835,398.403 c -22.96,0 -45.837,0 -68.933,0 0,-27.655 0,-55.301 0,-83.13 22.958,0 45.833,0 68.933,0 0,27.665 0,55.31 0,83.13 z"
       id="path49"
       inkscape:connector-curvature="0"
       style="clip-rule:evenodd;fill:#efefef;fill-rule:evenodd;stroke:#575756;stroke-miterlimit:10;fill-opacity:1" /><path
       stroke-miterlimit="10"
       d="m 501.063,460.556 c 0,-17.831 0,-35.173 0,-52.712 12.191,0 24.27,0 36.523,0 0,17.469 0,34.885 0,52.669 -3.591,-0.974 -7.132,-1.628 -10.532,-2.924 -5.206,-1.986 -10.263,-2.002 -15.465,0.023 -3.337,1.305 -6.826,1.937 -10.526,2.944 z"
       id="path51"
       inkscape:connector-curvature="0"
       style="clip-rule:evenodd;fill:#dadada;fill-rule:evenodd;stroke:#575756;stroke-miterlimit:10" /><path
       stroke-miterlimit="10"
       d="m 442.656,332.508 c 0,-5.862 0,-11.399 0,-17.168 4.874,0 9.64,0 14.613,0 0,5.625 0,11.301 0,17.168 -4.853,0 -9.618,0 -14.613,0 z"
       id="gLamp1"
       inkscape:connector-curvature="0"
       style="clip-rule:evenodd;fill:#9d9d9c;fill-rule:evenodd;stroke:#575756;stroke-miterlimit:10" /><path
       stroke-miterlimit="10"
       d="m 581.351,332.484 c 0,-5.762 0,-11.364 0,-17.174 4.911,0 9.735,0 14.701,0 0,5.754 0,11.357 0,17.174 -4.92,0 -9.744,0 -14.701,0 z"
       id="gLamp4"
       inkscape:connector-curvature="0"
       style="clip-rule:evenodd;fill:#9d9d9c;fill-rule:evenodd;stroke:#575756;stroke-miterlimit:10"
       inkscape:label="#gLamp4" /><path
       stroke-miterlimit="10"
       d="m 457.305,398.386 c -4.95,0 -9.715,0 -14.605,0 0,-5.856 0,-11.54 0,-17.386 4.912,0 9.673,0 14.605,0 0,5.773 0,11.452 0,17.386 z"
       id="gLamp3"
       inkscape:connector-curvature="0"
       style="clip-rule:evenodd;fill:#9d9d9c;fill-rule:evenodd;stroke:#575756;stroke-miterlimit:10" /><path
       stroke-miterlimit="10"
       d="m 596.025,398.503 c -5.041,0 -9.803,0 -14.687,0 0,-5.928 0,-11.56 0,-17.426 4.855,0 9.688,0 14.687,0 0,5.736 0,11.425 0,17.426 z"
       id="gLamp6"
       inkscape:connector-curvature="0"
       style="clip-rule:evenodd;fill:#9d9d9c;fill-rule:evenodd;stroke:#575756;stroke-miterlimit:10" /><path
       stroke-miterlimit="10"
       d="m 442.693,365.485 c 0,-5.862 0,-11.4 0,-17.169 4.872,0 9.64,0 14.618,0 0,5.627 0,11.304 0,17.169 -4.858,0 -9.626,0 -14.618,0 z"
       id="gLamp2"
       inkscape:connector-curvature="0"
       style="clip-rule:evenodd;fill:#9d9d9c;fill-rule:evenodd;stroke:#575756;stroke-miterlimit:10"
       inkscape:label="#gLamp2" /><path
       stroke-miterlimit="10"
       d="m 581.373,365.422 c 0,-5.862 0,-11.399 0,-17.168 4.877,0 9.641,0 14.617,0 0,5.627 0,11.303 0,17.168 -4.851,0 -9.623,0 -14.617,0 z"
       id="gLamp5"
       inkscape:connector-curvature="0"
       style="clip-rule:evenodd;fill:#9d9d9c;fill-rule:evenodd;stroke:#575756;stroke-miterlimit:10" /></g><rect
     x="346.233"
     y="525.49146"
     width="292.37"
     height="45.606998"
     id="rect65"
     style="clip-rule:evenodd;fill-rule:evenodd" /><g
     id="g67"
     transform="translate(3.497,-93.299533)"><path
       d="m 299.832,615.369 0,3.334 c 44.747,-0.015 89.495,-0.026 134.243,-0.007 12.876,0.007 22.972,10.125 22.975,22.888 0,12.566 -10.193,22.672 -22.966,22.686 -27.781,0.021 -55.567,0.007 -83.35,0.007 -16.966,0 -33.935,0 -50.902,0 l 0,12.672 164.941,0 0,-61.579 -164.941,0 z"
       id="path69"
       inkscape:connector-curvature="0"
       style="fill:none" /><path
       d="m 434.083,664.27 c 12.772,-0.014 22.966,-10.119 22.966,-22.686 -0.003,-12.763 -10.099,-22.881 -22.975,-22.888 -44.748,-0.02 -229.51802,-0.008 -274.26502,0.007 l 0.34573,3.311 c 44.474,0.012 228.62129,0.029 273.10129,-0.07 9.818,-0.022 17.502,6.163 19.804,14.29 3.315,11.694 -5.056,23.765 -17.168,24.649 -1.164,0.083 -2.338,0.083 -3.51,0.083 l -81.788,0 0,-0.009 c -16.922,0 -175.24595,-0.012 -192.16795,-0.015 l 0.69146,3.334 191.61549,0 c 27.783,0 55.569,0.014 83.35,-0.006 z"
       id="path71"
       inkscape:connector-curvature="0"
       sodipodi:nodetypes="ccccccccsccccsc" /><path
       d="m 350.595,660.966 81.788,0 c 1.172,0 2.346,0 3.51,-0.083 12.112,-0.885 20.483,-12.955 17.168,-24.649 -2.302,-8.127 -9.985,-14.313 -19.804,-14.29 -44.48,0.1 -227.59109,0.082 -272.06409,0.07 l 138.63909,2.974 123.7,0 c -10.753,7.486 -12.485,23.696 -0.058,33.021 l -262.97255,0 -0.34574,2.935 c 16.922,0.003 173.51729,0.015 190.43929,0.015 z m 66.968,-19.554 c 0.03,-9.131 7.494,-16.541 16.678,-16.569 9.167,-0.026 16.69,7.398 16.722,16.517 0.039,9.287 -7.367,16.73 -16.667,16.75 -9.263,0.022 -16.767,-7.463 -16.733,-16.698 z"
       id="path73"
       inkscape:connector-curvature="0"
       style="fill:#ffffff"
       sodipodi:nodetypes="cscccccccccccccccc" /><path
       d="m 423.531,624.987 -381.962835,0 13.137866,33.021 368.766969,0 c -12.427,-9.324 -10.695,-25.534 0.058,-33.021 z"
       id="path75"
       inkscape:connector-curvature="0"
       sodipodi:nodetypes="ccccc" /><path
       d="m 450.962,641.359 c -0.031,-9.118 -7.555,-16.543 -16.722,-16.517 -9.184,0.028 -16.647,7.438 -16.678,16.569 -0.033,9.235 7.471,16.72 16.732,16.697 9.301,-0.018 16.707,-7.462 16.668,-16.749 z m -27.754,-0.037 c 0.084,-6.136 5.039,-11.008 11.129,-10.967 6.162,0.043 11.078,5.08 11.033,11.298 -0.043,6.113 -5.188,11.059 -11.373,10.937 -6.099,-0.118 -10.879,-5.111 -10.789,-11.268 z"
       id="path77"
       inkscape:connector-curvature="0" /><path
       d="m 445.37,641.653 c 0.045,-6.218 -4.871,-11.255 -11.033,-11.298 -6.09,-0.041 -11.045,4.831 -11.129,10.967 -0.09,6.156 4.69,11.149 10.789,11.268 6.186,0.122 11.33,-4.823 11.373,-10.937 z m -11.313,8.18 c -4.549,-0.091 -8.204,-3.912 -8.109,-8.471 0.1,-4.683 3.945,-8.398 8.535,-8.239 4.544,0.145 8.217,3.96 8.183,8.481 -0.039,4.567 -3.978,8.323 -8.609,8.229 z"
       id="path79"
       inkscape:connector-curvature="0"
       style="fill:#ffffff" /><path
       d="m 434.482,633.123 c -4.59,-0.159 -8.436,3.557 -8.535,8.239 -0.095,4.559 3.561,8.38 8.109,8.471 4.631,0.094 8.57,-3.662 8.608,-8.229 0.035,-4.521 -3.638,-8.336 -8.182,-8.481 z"
       id="path81"
       inkscape:connector-curvature="0" /></g><g
     id="g167"
     transform="translate(3.497,-87.299533)"
     display="none"
     style="display:none"><path
       d="m 39.886,597.563 c 0.005,0.05 0,0.072 0.011,0.086 0.187,0.298 0.371,0.597 0.562,0.893 1.42,2.177 2.734,4.438 4.442,6.428 1.901,2.205 3.92,4.294 6.428,5.836 1.79,1.098 3.716,1.798 5.835,1.801 11.276,0.018 22.557,0.013 33.83,-0.003 0.606,0 1.222,-0.094 1.815,-0.218 1.901,-0.39 3.555,-1.319 5.067,-2.513 2.45,-1.938 4.599,-4.184 6.494,-6.664 1.373,-1.797 2.644,-3.673 3.961,-5.517 0.02,-0.033 0.027,-0.069 0.057,-0.135 -5.455,0 -10.872,0 -16.308,0 0.019,-0.071 0.019,-0.113 0.035,-0.146 0.737,-1.957 1.474,-3.912 2.227,-5.864 0.038,-0.097 0.16,-0.203 0.263,-0.232 3.108,-0.794 6.083,-1.916 8.93,-3.391 2.419,-1.24 4.669,-2.73 6.61,-4.648 2.48,-2.445 4.136,-5.31 4.441,-8.851 0.125,-1.465 -0.037,-2.898 -0.597,-4.274 -1.713,-4.185 -6.146,-6.467 -10.6,-5.477 -0.544,0.121 -1.08,0.265 -1.652,0.4 0.716,-4.211 0.958,-8.415 0.818,-12.64 -19.06,0 -38.101,0 -57.146,0 -0.006,0.054 -0.015,0.094 -0.015,0.126 -0.072,3.685 0.072,7.355 0.612,11.01 0.447,3.033 1.038,6.033 1.765,9.006 1.899,7.752 4.394,15.308 7.333,22.73 0.295,0.739 0.593,1.477 0.905,2.256 -5.4,10e-4 -10.759,10e-4 -16.123,10e-4 z"
       id="path169"
       inkscape:connector-curvature="0"
       style="clip-rule:evenodd;fill:#ffffff;fill-rule:evenodd" /><path
       d="m 39.886,597.563 c 5.365,0 10.724,0 16.125,0 -0.312,-0.779 -0.61,-1.517 -0.905,-2.256 -2.939,-7.423 -5.434,-14.979 -7.333,-22.73 -0.728,-2.973 -1.318,-5.973 -1.765,-9.006 -0.541,-3.654 -0.684,-7.325 -0.612,-11.01 0,-0.032 0.008,-0.072 0.015,-0.126 19.045,0 38.086,0 57.146,0 0.141,4.225 -0.102,8.429 -0.818,12.64 0.572,-0.136 1.108,-0.279 1.652,-0.4 4.454,-0.99 8.887,1.292 10.6,5.477 0.56,1.376 0.722,2.81 0.597,4.274 -0.306,3.541 -1.961,6.405 -4.441,8.851 -1.941,1.918 -4.191,3.408 -6.61,4.648 -2.847,1.475 -5.822,2.597 -8.93,3.391 -0.103,0.029 -0.225,0.136 -0.263,0.232 -0.753,1.952 -1.49,3.907 -2.227,5.864 -0.016,0.032 -0.016,0.074 -0.035,0.146 5.436,0 10.853,0 16.308,0 -0.03,0.065 -0.038,0.102 -0.057,0.135 -1.317,1.844 -2.588,3.72 -3.961,5.517 -1.895,2.48 -4.043,4.727 -6.494,6.664 -1.512,1.193 -3.166,2.123 -5.067,2.513 -0.593,0.124 -1.208,0.218 -1.815,0.218 -11.273,0.016 -22.553,0.021 -33.83,0.003 -2.119,-0.003 -4.045,-0.703 -5.835,-1.801 -2.508,-1.542 -4.526,-3.631 -6.428,-5.836 -1.708,-1.989 -3.022,-4.251 -4.442,-6.428 -0.19,-0.296 -0.375,-0.595 -0.562,-0.893 -0.013,-0.014 -0.008,-0.037 -0.013,-0.087 z m 56.301,-39.105 c -14.833,0 -29.602,0 -44.396,0 0.053,0.58 0.084,1.146 0.159,1.696 0.257,1.995 0.481,3.994 0.807,5.978 0.535,3.235 1.267,6.432 2.113,9.606 1.973,7.387 4.513,14.565 7.54,21.583 0.092,0.214 0.2,0.245 0.399,0.245 7.454,-0.003 14.908,-0.003 22.361,0 0.206,0.007 0.309,-0.053 0.396,-0.251 2.1,-4.774 3.968,-9.642 5.502,-14.617 1.031,-3.354 1.901,-6.753 2.778,-10.154 0.459,-1.766 0.816,-3.557 1.149,-5.358 0.342,-1.857 0.616,-3.732 0.883,-5.606 0.145,-1.031 0.209,-2.065 0.309,-3.122 z m -0.726,45.208 c -0.018,-0.021 -0.035,-0.043 -0.046,-0.063 -14.323,0 -28.642,0 -43.011,0 0.061,0.055 0.093,0.094 0.133,0.115 1.033,0.757 2.052,1.54 3.114,2.258 0.681,0.46 1.464,0.627 2.305,0.627 10.836,-0.014 21.673,-0.006 32.506,-0.016 0.323,-0.004 0.668,-0.064 0.955,-0.205 0.555,-0.268 1.098,-0.579 1.606,-0.931 0.833,-0.568 1.626,-1.187 2.438,-1.785 z m 1.45,-19.313 c 0.046,-0.016 0.103,-0.029 0.157,-0.046 1.736,-0.677 3.417,-1.47 5.024,-2.421 1.69,-1.009 3.272,-2.168 4.569,-3.675 1.347,-1.566 2.119,-3.325 1.884,-5.445 -0.138,-1.262 -0.933,-2.107 -2.193,-2.229 -2.121,-0.211 -3.947,0.458 -5.488,1.898 -0.622,0.584 -1.074,1.267 -1.245,2.136 -0.204,0.988 -0.481,1.962 -0.754,2.937 -0.641,2.271 -1.296,4.546 -1.954,6.845 z"
       id="path171"
       inkscape:connector-curvature="0"
       style="clip-rule:evenodd;fill:#3c3c3b;fill-rule:evenodd" /><path
       d="m 96.187,558.458 c -0.1,1.057 -0.163,2.091 -0.31,3.121 -0.267,1.874 -0.541,3.749 -0.883,5.606 -0.333,1.802 -0.69,3.593 -1.149,5.358 -0.877,3.401 -1.748,6.801 -2.778,10.154 -1.534,4.976 -3.402,9.843 -5.502,14.617 -0.087,0.198 -0.19,0.258 -0.396,0.251 -7.453,-0.003 -14.907,-0.003 -22.361,0 -0.2,0 -0.308,-0.031 -0.399,-0.245 -3.027,-7.018 -5.567,-14.196 -7.54,-21.583 -0.846,-3.175 -1.578,-6.371 -2.113,-9.606 -0.326,-1.983 -0.55,-3.982 -0.807,-5.978 -0.075,-0.551 -0.106,-1.116 -0.159,-1.696 14.795,10e-4 29.564,10e-4 44.397,10e-4 z"
       id="path173"
       inkscape:connector-curvature="0"
       style="clip-rule:evenodd;fill:#ffffff;fill-rule:evenodd" /><path
       d="m 95.461,603.666 c -0.812,0.598 -1.604,1.217 -2.439,1.786 -0.509,0.352 -1.051,0.663 -1.606,0.931 -0.287,0.141 -0.632,0.201 -0.955,0.205 -10.833,0.01 -21.67,0.002 -32.506,0.016 -0.841,0 -1.625,-0.167 -2.305,-0.627 -1.062,-0.718 -2.081,-1.501 -3.114,-2.258 -0.04,-0.021 -0.072,-0.061 -0.133,-0.115 14.37,0 28.688,0 43.011,0 0.012,0.019 0.029,0.042 0.047,0.062 z"
       id="path175"
       inkscape:connector-curvature="0"
       style="clip-rule:evenodd;fill:#ffffff;fill-rule:evenodd" /><path
       d="m 96.911,584.353 c 0.658,-2.299 1.313,-4.573 1.955,-6.846 0.272,-0.975 0.55,-1.948 0.754,-2.937 0.171,-0.869 0.624,-1.552 1.245,-2.136 1.541,-1.44 3.367,-2.109 5.488,-1.898 1.26,0.122 2.055,0.968 2.193,2.229 0.234,2.12 -0.538,3.879 -1.884,5.445 -1.297,1.507 -2.879,2.666 -4.569,3.675 -1.606,0.951 -3.288,1.744 -5.024,2.421 -0.056,0.017 -0.112,0.031 -0.158,0.047 z"
       id="path177"
       inkscape:connector-curvature="0"
       style="clip-rule:evenodd;fill:#ffffff;fill-rule:evenodd" /></g><g
     id="g195"
     transform="translate(3.497,-93.299533)"><path
       d="m 161.443,615.369 0,3.334 c -44.747,-0.015 -89.496,-0.026 -134.242,-0.007 -12.879,0.007 -22.972,10.125 -22.976,22.888 0,12.566 10.191,22.672 22.968,22.686 27.781,0.021 55.567,0.007 83.348,0.007 16.967,0 33.935,0 50.903,0 l 0,12.672 -164.941,0 0,-61.579 164.94,0 z"
       id="path197"
       inkscape:connector-curvature="0"
       style="fill:none" /><path
       d="M 27.193,664.27 C 14.417,664.256 4.225,654.151 4.225,641.584 c 0.004,-12.763 10.097,-22.881 22.976,-22.888 44.747,-0.02 89.495,-0.008 134.242,0.007 l 0,3.311 c -44.475,0.012 -88.947,0.029 -133.426,-0.07 -9.817,-0.022 -17.502,6.163 -19.806,14.29 -3.313,11.694 5.055,23.765 17.169,24.649 1.166,0.083 2.339,0.083 3.511,0.083 27.261,0 54.521,0 81.788,0 0,-0.003 0,-0.009 0,-0.009 16.92,0 33.842,-0.012 50.764,-0.015 l 0,3.334 c -16.968,0 -33.936,0 -50.903,0 -27.78,0 -55.566,0.014 -83.347,-0.006 z"
       id="path199"
       inkscape:connector-curvature="0" /><path
       d="m 110.68,660.957 c 16.92,0 33.842,-0.012 50.764,-0.015 l 0,-2.935 c -41.324,0 -82.446,0 -123.642,0 12.429,-9.324 10.696,-25.534 -0.06,-33.021 41.295,0 82.418,0 123.702,0 l 0,-2.974 c -44.475,0.012 -88.947,0.029 -133.426,-0.07 -9.817,-0.022 -17.502,6.163 -19.806,14.29 -3.313,11.694 5.055,23.765 17.169,24.649 1.166,0.083 2.339,0.083 3.511,0.083 27.261,0 54.521,0 81.788,0 0,-0.001 0,-0.007 0,-0.007 z m -83.701,-2.848 c -9.299,-0.02 -16.702,-7.462 -16.668,-16.75 0.034,-9.118 7.556,-16.543 16.721,-16.517 9.187,0.028 16.65,7.438 16.681,16.569 0.033,9.236 -7.472,16.721 -16.734,16.698 z"
       id="path201"
       inkscape:connector-curvature="0"
       style="fill:#ffffff" /><path
       d="m 37.741,624.987 4.078249,0 13.829335,33.021 -17.847584,0 c 12.429,-9.324 10.696,-25.534 -0.06,-33.021 z"
       id="path203"
       inkscape:connector-curvature="0"
       sodipodi:nodetypes="ccccc" /><path
       d="m 26.979,658.109 c 9.263,0.022 16.768,-7.462 16.734,-16.697 -0.031,-9.131 -7.494,-16.541 -16.681,-16.569 -9.165,-0.026 -16.687,7.398 -16.721,16.517 -0.035,9.287 7.368,16.73 16.668,16.749 z m 0.297,-5.519 c -6.185,0.122 -11.328,-4.823 -11.37,-10.937 -0.045,-6.218 4.869,-11.255 11.031,-11.298 6.088,-0.041 11.044,4.831 11.128,10.967 0.09,6.157 -4.689,11.15 -10.789,11.268 z"
       id="path205"
       inkscape:connector-curvature="0" /><path
       d="m 27.276,652.59 c 6.1,-0.118 10.879,-5.111 10.789,-11.268 -0.084,-6.136 -5.04,-11.008 -11.128,-10.967 -6.162,0.043 -11.076,5.08 -11.031,11.298 0.042,6.114 5.185,11.059 11.37,10.937 z m -8.67,-10.986 c -0.033,-4.521 3.644,-8.337 8.186,-8.481 4.589,-0.159 8.435,3.557 8.536,8.239 0.094,4.559 -3.565,8.38 -8.111,8.471 -4.633,0.094 -8.57,-3.662 -8.611,-8.229 z"
       id="path207"
       inkscape:connector-curvature="0"
       style="fill:#ffffff" /><path
       d="m 26.792,633.123 c 4.589,-0.159 8.435,3.557 8.536,8.239 0.094,4.559 -3.565,8.38 -8.111,8.471 -4.633,0.094 -8.569,-3.662 -8.61,-8.229 -0.034,-4.521 3.643,-8.336 8.185,-8.481 z"
       id="path209"
       inkscape:connector-curvature="0" /></g><g
     id="g211"
     transform="translate(3.497,-93.299533)"><path
       d="m 613.642,615.369 0,3.334 c -44.749,-0.015 -89.496,-0.026 -134.243,-0.007 -12.88,0.007 -22.974,10.125 -22.978,22.888 0,12.566 10.193,22.672 22.968,22.686 27.779,0.021 55.567,0.007 83.349,0.007 16.966,0 33.933,0 50.904,0 l 0,12.672 -164.94,0 0,-61.579 164.94,0 z"
       id="path213"
       inkscape:connector-curvature="0"
       style="fill:none" /><path
       d="m 479.389,664.27 c -12.774,-0.014 -22.968,-10.119 -22.968,-22.686 0.004,-12.763 10.098,-22.881 22.978,-22.888 44.747,-0.02 89.494,-0.008 134.243,0.007 l 0,3.311 c -44.476,0.012 -88.948,0.029 -133.427,-0.07 -9.822,-0.022 -17.503,6.163 -19.807,14.29 -3.311,11.694 5.056,23.765 17.169,24.649 1.168,0.083 2.341,0.083 3.509,0.083 27.263,0 54.524,0 81.789,0 0,-0.003 0,-0.009 0,-0.009 16.926,0 33.841,-0.012 50.767,-0.015 l 0,3.334 c -16.972,0 -33.938,0 -50.904,0 -27.782,0 -55.57,0.014 -83.349,-0.006 z"
       id="path215"
       inkscape:connector-curvature="0" /><path
       d="m 562.875,660.957 c 16.926,0 33.841,-0.012 50.767,-0.015 l 0,-2.935 c -41.327,0 -82.444,0 -123.643,0 12.426,-9.324 10.695,-25.534 -0.062,-33.021 41.296,0 82.419,0 123.704,0 l 0,-2.974 c -44.476,0.012 -88.948,0.029 -133.427,-0.07 -9.822,-0.022 -17.503,6.163 -19.807,14.29 -3.311,11.694 5.056,23.765 17.169,24.649 1.168,0.083 2.341,0.083 3.509,0.083 27.263,0 54.524,0 81.789,0 10e-4,-0.001 10e-4,-0.007 10e-4,-0.007 z m -83.697,-2.848 c -9.303,-0.02 -16.705,-7.463 -16.67,-16.75 0.033,-9.118 7.557,-16.543 16.721,-16.517 9.188,0.028 16.65,7.438 16.68,16.569 0.032,9.235 -7.471,16.721 -16.731,16.698 z"
       id="path217"
       inkscape:connector-curvature="0"
       style="fill:#ffffff" /><path
       d="m 489.938,624.987 c 41.296,0 82.419,0 123.704,0 l 0,33.021 c -41.327,0 -82.444,0 -123.643,0 12.426,-9.324 10.695,-25.534 -0.061,-33.021 z"
       id="path219"
       inkscape:connector-curvature="0" /><path
       d="m 479.178,658.109 c 9.261,0.022 16.764,-7.463 16.73,-16.697 -0.029,-9.131 -7.492,-16.541 -16.68,-16.569 -9.164,-0.026 -16.688,7.398 -16.721,16.517 -0.034,9.286 7.368,16.73 16.671,16.749 z m 0.297,-5.519 c -6.187,0.122 -11.331,-4.823 -11.374,-10.937 -0.045,-6.218 4.872,-11.255 11.032,-11.298 6.09,-0.041 11.046,4.831 11.129,10.967 0.089,6.157 -4.69,11.15 -10.787,11.268 z"
       id="path221"
       inkscape:connector-curvature="0" /><path
       d="m 479.475,652.59 c 6.098,-0.118 10.876,-5.111 10.787,-11.268 -0.083,-6.136 -5.039,-11.008 -11.129,-10.967 -6.16,0.043 -11.077,5.08 -11.032,11.298 0.043,6.114 5.187,11.059 11.374,10.937 z m -8.671,-10.986 c -0.032,-4.521 3.642,-8.337 8.185,-8.481 4.589,-0.159 8.434,3.557 8.535,8.239 0.096,4.559 -3.563,8.38 -8.11,8.471 -4.632,0.094 -8.571,-3.662 -8.61,-8.229 z"
       id="path223"
       inkscape:connector-curvature="0"
       style="fill:#ffffff" /><path
       d="m 478.988,633.123 c 4.589,-0.159 8.434,3.557 8.535,8.239 0.096,4.559 -3.563,8.38 -8.11,8.471 -4.631,0.094 -8.57,-3.662 -8.609,-8.229 -0.033,-4.521 3.641,-8.336 8.184,-8.481 z"
       id="path225"
       inkscape:connector-curvature="0" /></g><g
     id="g227"
     transform="translate(3.497,-93.299533)"><path
       d="m 529.899,615.369 0,3.334 c 44.748,-0.015 89.496,-0.026 134.243,-0.007 12.88,0.007 22.973,10.125 22.977,22.888 0,12.566 -10.193,22.672 -22.968,22.686 -27.78,0.021 -55.567,0.007 -83.348,0.007 -16.966,0 -33.935,0 -50.904,0 l 0,12.672 164.941,0 0,-61.579 -164.941,0 z"
       id="path229"
       inkscape:connector-curvature="0"
       style="fill:none" /><path
       d="m 664.151,664.27 c 12.774,-0.014 22.968,-10.119 22.968,-22.686 -0.004,-12.763 -10.097,-22.881 -22.977,-22.888 -44.747,-0.02 -89.495,-0.008 -134.243,0.007 l 0,3.311 c 44.474,0.012 88.948,0.029 133.426,-0.07 9.821,-0.022 17.502,6.163 19.806,14.29 3.313,11.694 -5.055,23.765 -17.168,24.649 -1.166,0.083 -2.339,0.083 -3.51,0.083 -27.261,0 -54.523,0 -81.788,0 0,-0.003 0,-0.009 0,-0.009 -16.923,0 -33.84,-0.012 -50.766,-0.015 l 0,3.334 c 16.97,0 33.938,0 50.904,0 27.781,0 55.568,0.014 83.348,-0.006 z"
       id="path231"
       inkscape:connector-curvature="0" /><path
       d="m 580.665,660.966 c 27.265,0 54.527,0 81.788,0 1.171,0 2.344,0 3.51,-0.083 12.113,-0.885 20.481,-12.955 17.168,-24.649 -2.304,-8.127 -9.984,-14.313 -19.806,-14.29 -44.478,0.1 -88.952,0.082 -133.426,0.07 l 0,2.974 c 41.286,0 82.409,0 123.704,0 -10.754,7.486 -12.488,23.696 -0.062,33.021 -41.198,0 -82.317,0 -123.643,0 l 0,2.935 c 16.926,0.003 33.843,0.015 50.766,0.015 10e-4,-0.002 10e-4,0.004 10e-4,0.007 z m 66.967,-19.554 c 0.029,-9.131 7.493,-16.541 16.68,-16.569 9.165,-0.026 16.688,7.398 16.722,16.517 0.037,9.287 -7.369,16.73 -16.671,16.75 -9.261,0.022 -16.763,-7.464 -16.731,-16.698 z"
       id="path233"
       inkscape:connector-curvature="0"
       style="fill:#ffffff" /><path
       d="m 653.604,624.987 c -41.295,0 -82.418,0 -123.704,0 l 0,33.021 c 41.325,0 82.444,0 123.643,0 -12.428,-9.324 -10.693,-25.534 0.061,-33.021 z"
       id="path235"
       inkscape:connector-curvature="0" /><path
       d="m 681.033,641.359 c -0.033,-9.118 -7.557,-16.543 -16.722,-16.517 -9.187,0.028 -16.65,7.438 -16.68,16.569 -0.032,9.234 7.47,16.72 16.73,16.697 9.303,-0.018 16.709,-7.462 16.672,-16.749 z m -27.754,-0.037 c 0.082,-6.136 5.039,-11.008 11.129,-10.967 6.16,0.043 11.078,5.08 11.032,11.298 -0.045,6.113 -5.189,11.059 -11.373,10.937 -6.101,-0.118 -10.878,-5.111 -10.788,-11.268 z"
       id="path237"
       inkscape:connector-curvature="0" /><path
       d="m 675.44,641.653 c 0.046,-6.218 -4.872,-11.255 -11.032,-11.298 -6.09,-0.041 -11.047,4.831 -11.129,10.967 -0.09,6.156 4.687,11.149 10.788,11.268 6.184,0.122 11.329,-4.823 11.373,-10.937 z m -11.314,8.18 c -4.545,-0.091 -8.204,-3.912 -8.107,-8.471 0.099,-4.683 3.943,-8.398 8.533,-8.239 4.542,0.145 8.217,3.96 8.186,8.481 -0.041,4.567 -3.98,8.323 -8.612,8.229 z"
       id="path239"
       inkscape:connector-curvature="0"
       style="fill:#ffffff" /><path
       d="m 664.552,633.123 c -4.59,-0.159 -8.435,3.557 -8.533,8.239 -0.097,4.559 3.563,8.38 8.107,8.471 4.632,0.094 8.571,-3.662 8.611,-8.229 0.032,-4.521 -3.643,-8.336 -8.185,-8.481 z"
       id="path241"
       inkscape:connector-curvature="0" /></g><rect
     style="opacity:0.997;fill:#efefef;fill-opacity:1;stroke:none;stroke-width:2.04774451;stroke-miterlimit:4;stroke-dasharray:none;stroke-opacity:1"
     id="rect999"
     width="6.9062109"
     height="81.773766"
     x="451.82559"
     y="381.71945"
     ry="1.9064268" /><rect
     style="opacity:0.997;fill:#efefef;fill-opacity:1;stroke:none;stroke-width:2.04202604;stroke-miterlimit:4;stroke-dasharray:none;stroke-opacity:1"
     id="rect999-9"
     width="6.9062109"
     height="81.317688"
     x="461.20734"
     y="381.92764"
     ry="1.895794" /><g
     id="g83"
     transform="translate(3.497,-87.299533)"><path
       d="m 48.11,597.563 c 0.005,0.05 0,0.072 0.012,0.086 0.185,0.298 0.37,0.597 0.559,0.893 1.421,2.177 2.734,4.438 4.443,6.428 1.902,2.205 3.92,4.294 6.428,5.836 1.789,1.098 3.717,1.798 5.835,1.801 11.277,0.018 22.558,0.013 33.829,-0.003 0.609,0 1.223,-0.094 1.816,-0.218 1.901,-0.39 3.555,-1.319 5.066,-2.513 2.451,-1.938 4.6,-4.184 6.495,-6.664 1.373,-1.797 2.644,-3.673 3.959,-5.517 0.021,-0.033 0.029,-0.069 0.058,-0.135 -5.456,0 -10.872,0 -16.307,0 0.018,-0.071 0.018,-0.113 0.036,-0.146 0.736,-1.957 1.473,-3.912 2.226,-5.864 0.039,-0.097 0.161,-0.203 0.264,-0.232 3.107,-0.794 6.083,-1.916 8.931,-3.391 2.418,-1.24 4.668,-2.73 6.61,-4.648 2.479,-2.445 4.135,-5.31 4.44,-8.851 0.126,-1.465 -0.035,-2.898 -0.595,-4.274 -1.713,-4.185 -6.146,-6.467 -10.6,-5.477 -0.543,0.121 -1.081,0.265 -1.653,0.4 0.715,-4.211 0.959,-8.415 0.818,-12.64 -19.059,0 -38.1,0 -57.145,0 -0.007,0.054 -0.016,0.094 -0.016,0.126 -0.071,3.685 0.073,7.355 0.613,11.01 0.445,3.033 1.037,6.033 1.763,9.006 1.901,7.752 4.395,15.308 7.334,22.73 0.296,0.739 0.593,1.477 0.906,2.256 -5.402,10e-4 -10.762,10e-4 -16.125,10e-4 z"
       id="path85"
       inkscape:connector-curvature="0"
       style="clip-rule:evenodd;fill:#ffffff;fill-rule:evenodd" /><path
       d="m 48.11,597.563 c 5.363,0 10.723,0 16.124,0 -0.313,-0.779 -0.609,-1.517 -0.906,-2.256 -2.939,-7.423 -5.433,-14.979 -7.334,-22.73 -0.727,-2.973 -1.318,-5.973 -1.763,-9.006 -0.54,-3.654 -0.684,-7.325 -0.613,-11.01 0,-0.032 0.008,-0.072 0.016,-0.126 19.044,0 38.085,0 57.145,0 0.141,4.225 -0.103,8.429 -0.818,12.64 0.572,-0.136 1.109,-0.279 1.653,-0.4 4.454,-0.99 8.887,1.292 10.6,5.477 0.56,1.376 0.722,2.81 0.595,4.274 -0.305,3.541 -1.96,6.405 -4.44,8.851 -1.942,1.918 -4.191,3.408 -6.61,4.648 -2.848,1.475 -5.824,2.597 -8.931,3.391 -0.103,0.029 -0.225,0.136 -0.264,0.232 -0.753,1.952 -1.49,3.907 -2.226,5.864 -0.018,0.032 -0.018,0.074 -0.036,0.146 5.435,0 10.852,0 16.307,0 -0.029,0.065 -0.037,0.102 -0.058,0.135 -1.315,1.844 -2.587,3.72 -3.959,5.517 -1.895,2.48 -4.044,4.727 -6.495,6.664 -1.511,1.193 -3.165,2.123 -5.066,2.513 -0.593,0.124 -1.207,0.218 -1.816,0.218 -11.271,0.016 -22.551,0.021 -33.829,0.003 -2.118,-0.003 -4.046,-0.703 -5.835,-1.801 -2.508,-1.542 -4.526,-3.631 -6.428,-5.836 -1.709,-1.989 -3.021,-4.251 -4.443,-6.428 -0.189,-0.296 -0.374,-0.595 -0.559,-0.893 -0.011,-0.014 -0.006,-0.037 -0.011,-0.087 z m 56.3,-39.105 c -14.832,0 -29.601,0 -44.395,0 0.051,0.58 0.083,1.146 0.158,1.696 0.258,1.995 0.481,3.994 0.806,5.978 0.536,3.235 1.267,6.432 2.114,9.606 1.972,7.387 4.512,14.565 7.539,21.583 0.093,0.214 0.201,0.245 0.401,0.245 7.453,-0.003 14.907,-0.003 22.36,0 0.206,0.007 0.308,-0.053 0.396,-0.251 2.101,-4.774 3.967,-9.642 5.501,-14.617 1.031,-3.354 1.902,-6.753 2.779,-10.154 0.459,-1.766 0.816,-3.557 1.148,-5.358 0.342,-1.857 0.616,-3.732 0.883,-5.606 0.148,-1.031 0.211,-2.065 0.31,-3.122 z m -0.725,45.208 c -0.017,-0.021 -0.034,-0.043 -0.047,-0.063 -14.322,0 -28.641,0 -43.009,0 0.06,0.055 0.09,0.094 0.131,0.115 1.034,0.757 2.052,1.54 3.113,2.258 0.681,0.46 1.463,0.627 2.305,0.627 10.838,-0.014 21.674,-0.006 32.506,-0.016 0.323,-0.004 0.668,-0.064 0.953,-0.205 0.558,-0.268 1.1,-0.579 1.608,-0.931 0.836,-0.568 1.628,-1.187 2.44,-1.785 z m 1.45,-19.313 c 0.047,-0.016 0.102,-0.029 0.157,-0.046 1.736,-0.677 3.418,-1.47 5.024,-2.421 1.69,-1.009 3.273,-2.168 4.568,-3.675 1.348,-1.566 2.119,-3.325 1.885,-5.445 -0.137,-1.262 -0.933,-2.107 -2.193,-2.229 -2.122,-0.211 -3.947,0.458 -5.488,1.898 -0.621,0.584 -1.074,1.267 -1.246,2.136 -0.202,0.988 -0.481,1.962 -0.753,2.937 -0.641,2.271 -1.297,4.546 -1.954,6.845 z"
       id="path87"
       inkscape:connector-curvature="0"
       style="clip-rule:evenodd;fill:#3c3c3b;fill-rule:evenodd" /><path
       d="m 104.41,558.458 c -0.099,1.057 -0.162,2.091 -0.31,3.121 -0.267,1.874 -0.542,3.749 -0.883,5.606 -0.332,1.802 -0.689,3.593 -1.148,5.358 -0.877,3.401 -1.748,6.801 -2.779,10.154 -1.535,4.976 -3.401,9.843 -5.501,14.617 -0.088,0.198 -0.19,0.258 -0.396,0.251 -7.453,-0.003 -14.907,-0.003 -22.36,0 -0.2,0 -0.308,-0.031 -0.401,-0.245 -3.027,-7.018 -5.567,-14.196 -7.539,-21.583 -0.847,-3.175 -1.578,-6.371 -2.114,-9.606 -0.325,-1.983 -0.548,-3.982 -0.806,-5.978 -0.074,-0.551 -0.106,-1.116 -0.158,-1.696 14.794,10e-4 29.563,10e-4 44.395,10e-4 z"
       id="path89"
       inkscape:connector-curvature="0"
       style="clip-rule:evenodd;fill:#ffffff;fill-rule:evenodd" /><path
       d="m 103.685,603.666 c -0.812,0.598 -1.604,1.217 -2.438,1.786 -0.509,0.352 -1.05,0.663 -1.608,0.931 -0.285,0.141 -0.63,0.201 -0.953,0.205 -10.832,0.01 -21.668,0.002 -32.506,0.016 -0.842,0 -1.624,-0.167 -2.305,-0.627 -1.061,-0.718 -2.08,-1.501 -3.113,-2.258 -0.041,-0.021 -0.071,-0.061 -0.131,-0.115 14.368,0 28.687,0 43.009,0 0.01,0.019 0.027,0.042 0.045,0.062 z"
       id="path91"
       inkscape:connector-curvature="0"
       style="clip-rule:evenodd;fill:#ffffff;fill-rule:evenodd" /><path
       d="m 105.135,584.353 c 0.657,-2.299 1.313,-4.573 1.954,-6.846 0.272,-0.975 0.551,-1.948 0.753,-2.937 0.172,-0.869 0.625,-1.552 1.246,-2.136 1.541,-1.44 3.366,-2.109 5.488,-1.898 1.26,0.122 2.056,0.968 2.193,2.229 0.234,2.12 -0.537,3.879 -1.885,5.445 -1.295,1.507 -2.878,2.666 -4.568,3.675 -1.605,0.951 -3.288,1.744 -5.024,2.421 -0.055,0.017 -0.11,0.031 -0.157,0.047 z"
       id="path93"
       inkscape:connector-curvature="0"
       style="clip-rule:evenodd;fill:#ffffff;fill-rule:evenodd" /></g></svg>