<?xml version="1.0" encoding="UTF-8" standalone="no"?>
<!-- Generator: Adobe Illustrator 20.0.0, SVG Export Plug-In . SVG Version: 6.00 Build 0)  -->

<svg
   xmlns:dc="http://purl.org/dc/elements/1.1/"
   xmlns:cc="http://creativecommons.org/ns#"
   xmlns:rdf="http://www.w3.org/1999/02/22-rdf-syntax-ns#"
   xmlns:svg="http://www.w3.org/2000/svg"
   xmlns="http://www.w3.org/2000/svg"
   xmlns:sodipodi="http://sodipodi.sourceforge.net/DTD/sodipodi-0.dtd"
   xmlns:inkscape="http://www.inkscape.org/namespaces/inkscape"
   version="1.1"
   id="Ebene_1"
   x="0px"
   y="0px"
   viewBox="0 0 44.684689 24.226"
   xml:space="preserve"
   width="44.684689"
   height="24.226"
   class="br-symbol-library"
   sodipodi:docname="AcknowledgeAll.svg"
   inkscape:version="0.92.3 (2405546, 2018-03-11)"><metadata
   id="metadata11"><rdf:RDF><cc:Work
       rdf:about=""><dc:format>image/svg+xml</dc:format><dc:type
         rdf:resource="http://purl.org/dc/dcmitype/StillImage" /><dc:title></dc:title></cc:Work></rdf:RDF></metadata><defs
   id="defs9" /><sodipodi:namedview
   pagecolor="#ffffff"
   bordercolor="#666666"
   borderopacity="1"
   objecttolerance="10"
   gridtolerance="10"
   guidetolerance="10"
   inkscape:pageopacity="0"
   inkscape:pageshadow="2"
   inkscape:window-width="1920"
   inkscape:window-height="1121"
   id="namedview7"
   showgrid="false"
   fit-margin-top="0"
   fit-margin-left="0"
   fit-margin-right="0"
   fit-margin-bottom="0"
   inkscape:zoom="3.6875"
   inkscape:cx="-50.463228"
   inkscape:cy="52.512484"
   inkscape:window-x="1911"
   inkscape:window-y="-9"
   inkscape:window-maximized="1"
   inkscape:current-layer="Acknowledge-4" />
<g
   id="Acknowledge"
   transform="translate(-2.6417462,-3.887)">
	<path
   d="M 13.408,17.114 H 11.99 c -0.2,0 -0.388,0.08 -0.388,0.28 v 1.362 c 0,0.15 0.035,0.45 0.065,0.595 l 0.493,2.572 c 0.03,0.147 0.2,0.44 0.35,0.44 h 0.425 c 0.152,0 0.333,-0.292 0.362,-0.44 l 0.477,-2.602 c 0.028,-0.145 0.077,-0.415 0.077,-0.565 v -0.99 c -0.249,-0.21 -0.309,-0.402 -0.443,-0.652 z m 0.444,6.023 c 0,-0.151 -0.122,-0.273 -0.272,-0.273 h -1.706 c -0.15,0 -0.272,0.122 -0.272,0.273 v 1.705 c 0,0.151 0.122,0.273 0.272,0.273 h 1.705 c 0.15,0 0.272,-0.122 0.272,-0.273 z m 0,0 c 0,-0.151 -0.122,-0.273 -0.272,-0.273 h -1.706 c -0.15,0 -0.272,0.122 -0.272,0.273 v 1.705 c 0,0.151 0.122,0.273 0.272,0.273 h 1.705 c 0.15,0 0.272,-0.122 0.272,-0.273 z M 13.408,17.114 H 11.99 c -0.2,0 -0.388,0.08 -0.388,0.28 v 1.362 c 0,0.15 0.035,0.45 0.065,0.595 l 0.493,2.572 c 0.03,0.147 0.2,0.44 0.35,0.44 h 0.425 c 0.152,0 0.333,-0.292 0.362,-0.44 l 0.477,-2.602 c 0.028,-0.145 0.077,-0.415 0.077,-0.565 v -0.99 c -0.249,-0.21 -0.309,-0.402 -0.443,-0.652 z m 0,0 H 11.99 c -0.2,0 -0.388,0.08 -0.388,0.28 v 1.362 c 0,0.15 0.035,0.45 0.065,0.595 l 0.493,2.572 c 0.03,0.147 0.2,0.44 0.35,0.44 h 0.425 c 0.152,0 0.333,-0.292 0.362,-0.44 l 0.477,-2.602 c 0.028,-0.145 0.077,-0.415 0.077,-0.565 v -0.99 c -0.249,-0.21 -0.309,-0.402 -0.443,-0.652 z m 0.444,6.023 c 0,-0.151 -0.122,-0.273 -0.272,-0.273 h -1.706 c -0.15,0 -0.272,0.122 -0.272,0.273 v 1.705 c 0,0.151 0.122,0.273 0.272,0.273 h 1.705 c 0.15,0 0.272,-0.122 0.272,-0.273 z m 8.794,3.152 -3.1,-5.247 c -1.142,-0.175 -2.21,-0.54 -3.157,-1.073 l 3.435,5.895 H 5.609 l 6.705,-11.5 c -0.162,-0.737 -0.244,-1.517 -0.244,-2.335 0,-0.455 0.03,-0.902 0.09,-1.34 -0.158,0.093 -0.293,0.225 -0.388,0.39 l -8.985,15.21 c -0.195,0.338 -0.193,0.847 0.002,1.182 0.195,0.337 0.552,0.642 0.943,0.642 H 21.7 c 0.39,0 0.747,-0.305 0.943,-0.642 0.194,-0.334 0.197,-0.845 0.003,-1.182 z M 13.408,17.114 H 11.99 c -0.2,0 -0.388,0.08 -0.388,0.28 v 1.362 c 0,0.15 0.035,0.45 0.065,0.595 l 0.493,2.572 c 0.03,0.147 0.2,0.44 0.35,0.44 h 0.425 c 0.152,0 0.333,-0.292 0.362,-0.44 l 0.477,-2.602 c 0.028,-0.145 0.077,-0.415 0.077,-0.565 v -0.99 c -0.249,-0.21 -0.309,-0.402 -0.443,-0.652 z m 0.444,6.023 c 0,-0.151 -0.122,-0.273 -0.272,-0.273 h -1.706 c -0.15,0 -0.272,0.122 -0.272,0.273 v 1.705 c 0,0.151 0.122,0.273 0.272,0.273 h 1.705 c 0.15,0 0.272,-0.122 0.272,-0.273 z m 0,0 c 0,-0.151 -0.122,-0.273 -0.272,-0.273 h -1.706 c -0.15,0 -0.272,0.122 -0.272,0.273 v 1.705 c 0,0.151 0.122,0.273 0.272,0.273 h 1.705 c 0.15,0 0.272,-0.122 0.272,-0.273 z M 13.408,17.114 H 11.99 c -0.2,0 -0.388,0.08 -0.388,0.28 v 1.362 c 0,0.15 0.035,0.45 0.065,0.595 l 0.493,2.572 c 0.03,0.147 0.2,0.44 0.35,0.44 h 0.425 c 0.152,0 0.333,-0.292 0.362,-0.44 l 0.477,-2.602 c 0.028,-0.145 0.077,-0.415 0.077,-0.565 v -0.99 c -0.249,-0.21 -0.309,-0.402 -0.443,-0.652 z M 21.215,3.887 c -4.055,0 -7.418,2.667 -8.04,6.75 -0.07,0.447 -0.105,0.913 -0.105,1.393 0,1.15 0.177,2.188 0.503,3.107 0.33,0.945 0.818,1.765 1.427,2.452 1.003,1.135 2.337,1.91 3.862,2.298 0.745,0.19 1.535,0.288 2.353,0.288 4.497,0 8.142,-3.648 8.142,-8.145 0,-4.497 -3.645,-8.143 -8.142,-8.143 z m 5.667,5.547 -7.122,7.122 c -0.048,0.05 -0.112,0.073 -0.175,0.073 -0.063,0 -0.125,-0.023 -0.175,-0.073 l -1.595,-1.595 c -0.098,-0.098 -0.253,-0.253 -0.35,-0.345 l -1.92,-1.925 c -0.097,-0.098 -0.097,-0.253 0,-0.35 l 1.595,-1.595 c 0.05,-0.05 0.112,-0.072 0.175,-0.072 0.063,0 0.127,0.022 0.174,0.072 l 1.92,1.92 c 0.05,0.048 0.113,0.072 0.177,0.072 0.062,0 0.125,-0.025 0.173,-0.072 l 5.165,-5.165 c 0.05,-0.048 0.113,-0.073 0.175,-0.073 0.062,0 0.127,0.025 0.175,0.073 l 1.608,1.587 c 0.097,0.094 0.097,0.251 0,0.346 z"
   id="path2"
   inkscape:connector-curvature="0" />
</g>
<g
   id="Ebene_1_1_"
   transform="translate(-2.6417462,-3.887)">
</g>
<g
   id="g38"
   transform="translate(13.745685,-2.9325401)"
   style="fill:#808080"><g
     id="Acknowledge-4"
     style="fill:#808080">
	<path
   sodipodi:nodetypes="scscccsssccsssccsssccsccsccc"
   inkscape:connector-curvature="0"
   id="path2-3"
   d="m 4.8275688,2.9325401 c -4.055,0 -7.418,2.667 -8.04,6.75 -0.07,0.4469999 -0.105,0.9129999 -0.105,1.3929999 0,1.15 0.177,2.188 0.503,3.107 0.33,0.945 0.818,1.765 1.427,2.452 1.003,1.135 2.337,1.91 3.862,2.298 0.745,0.19 1.535,0.288 2.353,0.288 4.497,0 8.1420002,-3.648 8.1420002,-8.145 0,-4.4969999 -3.6450002,-8.1429999 -8.1420002,-8.1429999 z m 5.6670002,5.547 -7.1220002,7.1219999 c -0.048,0.05 -0.112,0.073 -0.175,0.073 -0.063,0 -0.125,-0.023 -0.175,-0.073 l -1.595,-1.595 c -0.098,-0.098 -0.253,-0.253 -0.35,-0.345 l -1.92,-1.925 c -0.097,-0.098 -0.097,-0.253 0,-0.35 l 1.595,-1.5949999 c 0.05,-0.05 0.112,-0.072 0.175,-0.072 0.063,0 0.127,0.022 0.174,0.072 l 1.92,1.9199999 c 0.05,0.048 0.113,0.072 0.177,0.072 0.062,0 0.125,-0.025 0.173,-0.072 l 5.165,-5.1649999 c 0.05,-0.048 0.113,-0.073 0.175,-0.073 0.062,0 0.127,0.025 0.175,0.073 l 1.6080002,1.587 c 0.097,0.094 0.097,0.251 0,0.346 z"
   style="fill:#808080" />
<path
   style="fill:#808080;fill-opacity:0;stroke-width:0.01694915"
   d="m 33.234256,13.666866 c -0.02797,-0.0127 -0.937011,-0.910492 -2.020099,-1.995099 -1.736494,-1.7389304 -1.970574,-1.9793684 -1.980451,-2.034247 -0.02535,-0.1408526 -0.04392,-0.118737 0.853916,-1.0170946 0.911955,-0.912488 0.898144,-0.9010186 1.036991,-0.8611978 0.0444,0.012734 0.294253,0.2525363 1.066862,1.0239517 1.094437,1.0927456 1.041278,1.0475853 1.19956,1.0190644 0.05677,-0.010229 0.345063,-0.2927235 2.699153,-2.6448622 2.382513,-2.3805387 2.641853,-2.6345386 2.700787,-2.6451689 0.137407,-0.024785 0.134684,-0.027054 1.033665,0.8613409 0.904341,0.8936914 0.88649,0.872638 0.85723,1.0110212 -0.01015,0.047988 -0.618045,0.6638292 -3.611263,3.6584453 -2.129355,2.130349 -3.621335,3.610446 -3.653604,3.624502 -0.06748,0.02939 -0.116952,0.02922 -0.182747,-6.56e-4 z"
   id="path40"
   inkscape:connector-curvature="0"
   transform="translate(-13.745685,2.9325401)" /><path
   style="fill:#808080;fill-opacity:0;stroke-width:0.01694915"
   d="m 33.234256,13.666866 c -0.02797,-0.0127 -0.937011,-0.910492 -2.020099,-1.995099 -1.736494,-1.7389304 -1.970574,-1.9793684 -1.980451,-2.034247 -0.02535,-0.1408526 -0.04392,-0.118737 0.853916,-1.0170946 0.911955,-0.912488 0.898144,-0.9010186 1.036991,-0.8611978 0.0444,0.012734 0.294253,0.2525363 1.066862,1.0239517 1.094437,1.0927456 1.041278,1.0475853 1.19956,1.0190644 0.05677,-0.010229 0.345063,-0.2927235 2.699153,-2.6448622 2.382513,-2.3805387 2.641853,-2.6345386 2.700787,-2.6451689 0.137407,-0.024785 0.134684,-0.027054 1.033665,0.8613409 0.904341,0.8936914 0.88649,0.872638 0.85723,1.0110212 -0.01015,0.047988 -0.618045,0.6638292 -3.611263,3.6584453 -2.129355,2.130349 -3.621335,3.610446 -3.653604,3.624502 -0.06748,0.02939 -0.116952,0.02922 -0.182747,-6.56e-4 z"
   id="path42"
   inkscape:connector-curvature="0"
   transform="translate(-13.745685,2.9325401)" /><path
   style="fill:#808080;fill-opacity:0;stroke-width:0.01694915"
   d="m 33.234256,13.666866 c -0.02797,-0.0127 -0.937011,-0.910492 -2.020099,-1.995099 -1.736494,-1.7389304 -1.970574,-1.9793684 -1.980451,-2.034247 -0.02535,-0.1408526 -0.04392,-0.118737 0.853916,-1.0170946 0.911955,-0.912488 0.898144,-0.9010186 1.036991,-0.8611978 0.0444,0.012734 0.294253,0.2525363 1.066862,1.0239517 1.094437,1.0927456 1.041278,1.0475853 1.19956,1.0190644 0.05677,-0.010229 0.345063,-0.2927235 2.699153,-2.6448622 2.382513,-2.3805387 2.641853,-2.6345386 2.700787,-2.6451689 0.137407,-0.024785 0.134684,-0.027054 1.033665,0.8613409 0.904341,0.8936914 0.88649,0.872638 0.85723,1.0110212 -0.01015,0.047988 -0.618045,0.6638292 -3.611263,3.6584453 -2.129355,2.130349 -3.621335,3.610446 -3.653604,3.624502 -0.06748,0.02939 -0.116952,0.02922 -0.182747,-6.56e-4 z"
   id="path44"
   inkscape:connector-curvature="0"
   transform="translate(-13.745685,2.9325401)" /><path
   style="fill:#808080;fill-opacity:0;stroke-width:0.01694915"
   d="m 33.234256,13.666866 c -0.02797,-0.0127 -0.937011,-0.910492 -2.020099,-1.995099 -1.736494,-1.7389304 -1.970574,-1.9793684 -1.980451,-2.034247 -0.02535,-0.1408526 -0.04392,-0.118737 0.853916,-1.0170946 0.911955,-0.912488 0.898144,-0.9010186 1.036991,-0.8611978 0.0444,0.012734 0.294253,0.2525363 1.066862,1.0239517 1.094437,1.0927456 1.041278,1.0475853 1.19956,1.0190644 0.05677,-0.010229 0.345063,-0.2927235 2.699153,-2.6448622 2.382513,-2.3805387 2.641853,-2.6345386 2.700787,-2.6451689 0.137407,-0.024785 0.134684,-0.027054 1.033665,0.8613409 0.904341,0.8936914 0.88649,0.872638 0.85723,1.0110212 -0.01015,0.047988 -0.618045,0.6638292 -3.611263,3.6584453 -2.129355,2.130349 -3.621335,3.610446 -3.653604,3.624502 -0.06748,0.02939 -0.116952,0.02922 -0.182747,-6.56e-4 z"
   id="path46"
   inkscape:connector-curvature="0"
   transform="translate(-13.745685,2.9325401)" /><rect
   style="fill:#ffffff;fill-opacity:0"
   id="rect63"
   width="14.711866"
   height="12.406781"
   x="3.4746537"
   y="5.8026075" /><rect
   style="fill:#ffffff;fill-opacity:0"
   id="rect65"
   width="8.8135586"
   height="8.8474579"
   x="5.6780438"
   y="7.4636245" /><g
   id="g4582"
   transform="translate(1.2881356,-0.03389831)"><rect
     y="8.039896"
     x="6.0509248"
     height="8.4406776"
     width="9.8305082"
     id="rect67"
     style="fill:#ffffff;fill-opacity:1" /><path
     style="fill:#000000"
     d="m 12.188018,2.9467434 c -4.0549991,0 -7.4179991,2.667 -8.0399991,6.7499999 -0.07,0.4469997 -0.105,0.9129997 -0.105,1.3929997 0,1.15 0.177,2.188 0.503,3.107 0.33,0.945 0.818,1.765 1.427,2.452 1.003,1.135 2.337,1.91 3.861999,2.298 0.7450001,0.19 1.5350001,0.288 2.3530001,0.288 4.497,0 8.142,-3.648 8.142,-8.145 0,-4.4969998 -3.645,-8.1429996 -8.142,-8.1429996 z m 5.667,5.5469999 -7.122,7.1219997 c -0.048,0.05 -0.112,0.073 -0.175,0.073 -0.063,0 -0.125,-0.023 -0.175,-0.073 l -1.5949991,-1.595 c -0.098,-0.098 -0.253,-0.253 -0.35,-0.345 l -1.92,-1.925 c -0.097,-0.098 -0.097,-0.253 0,-0.35 l 1.595,-1.5949997 c 0.05,-0.05 0.112,-0.072 0.175,-0.072 0.063,0 0.127,0.022 0.174,0.072 l 1.9199991,1.9199997 c 0.05,0.048 0.113,0.072 0.177,0.072 0.062,0 0.125,-0.025 0.173,-0.072 l 5.165,-5.1649998 c 0.05,-0.048 0.113,-0.073 0.175,-0.073 0.062,0 0.127,0.025 0.175,0.073 l 1.608,1.5870001 c 0.097,0.094 0.097,0.251 0,0.346 z"
     id="path2-3-3"
     inkscape:connector-curvature="0"
     sodipodi:nodetypes="scscccsssccsssccsssccsccsccc" /></g></g><g
     id="Ebene_1_1_-5"
     style="fill:#808080">
</g></g></svg>