<?xml version="1.0" encoding="UTF-8" standalone="no"?>
<!-- Generator: Adobe Illustrator 16.0.0, SVG Export Plug-In . SVG Version: 6.00 Build 0)  -->

<svg
   xmlns:dc="http://purl.org/dc/elements/1.1/"
   xmlns:cc="http://creativecommons.org/ns#"
   xmlns:rdf="http://www.w3.org/1999/02/22-rdf-syntax-ns#"
   xmlns:svg="http://www.w3.org/2000/svg"
   xmlns="http://www.w3.org/2000/svg"
   xmlns:sodipodi="http://sodipodi.sourceforge.net/DTD/sodipodi-0.dtd"
   xmlns:inkscape="http://www.inkscape.org/namespaces/inkscape"
   version="1.1"
   id="Ebene_1"
   x="0px"
   y="0px"
   width="698.33698"
   height="610.82001"
   viewBox="0 0 698.33698 610.82001"
   enable-background="new 0 0 690 700"
   xml:space="preserve"
   inkscape:version="0.91 r13725"
   sodipodi:docname="Coffeemachine - Copy.svg"><metadata
     id="metadata247"><rdf:RDF><cc:Work
         rdf:about=""><dc:format>image/svg+xml</dc:format><dc:type
           rdf:resource="http://purl.org/dc/dcmitype/StillImage" /><dc:title /></cc:Work></rdf:RDF></metadata><defs
     id="defs245" /><sodipodi:namedview
     pagecolor="#ffffff"
     bordercolor="#666666"
     borderopacity="1"
     objecttolerance="10"
     gridtolerance="10"
     guidetolerance="10"
     inkscape:pageopacity="0"
     inkscape:pageshadow="2"
     inkscape:window-width="1920"
     inkscape:window-height="1173"
     id="namedview243"
     showgrid="false"
     inkscape:zoom="1.4462011"
     inkscape:cx="358.70201"
     inkscape:cy="308.67968"
     inkscape:window-x="1911"
     inkscape:window-y="-9"
     inkscape:window-maximized="1"
     inkscape:current-layer="Ebene_1"
     inkscape:snap-global="true"
     fit-margin-top="0"
     fit-margin-left="0"
     fit-margin-right="0"
     fit-margin-bottom="0" /><g
     id="g19"
     display="none"
     style="display:none"
     transform="translate(3.497,-93.299533)"><path
       d="m 479.84,548.121 c 0.006,0.056 0,0.083 0.013,0.101 0.216,0.341 0.427,0.687 0.647,1.03 1.644,2.52 3.163,5.135 5.139,7.433 2.2,2.554 4.54,4.973 7.443,6.758 2.066,1.27 4.301,2.078 6.748,2.081 13.046,0.021 26.1,0.018 39.141,-0.003 0.704,0 1.414,-0.105 2.103,-0.25 2.2,-0.454 4.113,-1.529 5.86,-2.91 2.835,-2.241 5.322,-4.84 7.513,-7.706 1.59,-2.083 3.06,-4.254 4.584,-6.385 0.022,-0.039 0.032,-0.084 0.065,-0.158 -6.312,0 -12.578,0 -18.865,0 0.02,-0.079 0.02,-0.129 0.038,-0.17 0.853,-2.263 1.707,-4.524 2.577,-6.781 0.044,-0.112 0.186,-0.235 0.306,-0.268 3.593,-0.919 7.037,-2.219 10.33,-3.923 2.801,-1.44 5.401,-3.158 7.649,-5.379 2.868,-2.831 4.784,-6.146 5.139,-10.241 0.145,-1.696 -0.045,-3.354 -0.691,-4.943 -1.983,-4.847 -7.111,-7.487 -12.265,-6.341 -0.629,0.143 -1.249,0.308 -1.91,0.466 0.827,-4.871 1.108,-9.738 0.944,-14.624 -22.051,0 -44.081,0 -66.116,0 -0.011,0.059 -0.018,0.104 -0.018,0.146 -0.083,4.262 0.085,8.51 0.709,12.738 0.513,3.507 1.2,6.979 2.041,10.42 2.199,8.966 5.084,17.713 8.484,26.297 0.345,0.856 0.688,1.712 1.048,2.613 -6.249,-10e-4 -12.447,-10e-4 -18.656,-10e-4 z"
       id="path21"
       inkscape:connector-curvature="0"
       style="clip-rule:evenodd;fill:#ffffff;fill-rule:evenodd" /><path
       d="m 479.84,548.121 c 6.209,0 12.407,0 18.656,0 -0.36,-0.901 -0.703,-1.757 -1.048,-2.613 -3.4,-8.584 -6.285,-17.331 -8.484,-26.297 -0.841,-3.44 -1.528,-6.913 -2.041,-10.42 -0.624,-4.229 -0.792,-8.477 -0.709,-12.738 0,-0.041 0.007,-0.087 0.018,-0.146 22.035,0 44.065,0 66.116,0 0.164,4.886 -0.117,9.753 -0.944,14.624 0.661,-0.158 1.281,-0.323 1.91,-0.466 5.153,-1.146 10.281,1.494 12.265,6.341 0.646,1.59 0.836,3.247 0.691,4.943 -0.354,4.096 -2.271,7.41 -5.139,10.241 -2.248,2.221 -4.849,3.938 -7.649,5.379 -3.293,1.704 -6.737,3.004 -10.33,3.923 -0.12,0.032 -0.262,0.155 -0.306,0.268 -0.87,2.257 -1.725,4.519 -2.577,6.781 -0.019,0.041 -0.019,0.091 -0.038,0.17 6.287,0 12.554,0 18.865,0 -0.033,0.074 -0.043,0.119 -0.065,0.158 -1.524,2.131 -2.994,4.302 -4.584,6.385 -2.19,2.866 -4.678,5.465 -7.513,7.706 -1.747,1.381 -3.66,2.456 -5.86,2.91 -0.688,0.145 -1.398,0.25 -2.103,0.25 -13.041,0.021 -26.095,0.023 -39.141,0.003 -2.447,-0.003 -4.682,-0.812 -6.748,-2.081 -2.903,-1.785 -5.243,-4.204 -7.443,-6.758 -1.976,-2.298 -3.495,-4.913 -5.139,-7.433 -0.221,-0.344 -0.432,-0.689 -0.647,-1.03 -0.013,-0.017 -0.007,-0.044 -0.013,-0.1 z m 65.14,-45.246 c -17.161,0 -34.251,0 -51.364,0 0.059,0.67 0.098,1.322 0.181,1.963 0.302,2.309 0.56,4.622 0.936,6.914 0.619,3.745 1.467,7.445 2.443,11.115 2.282,8.545 5.223,16.854 8.724,24.974 0.106,0.244 0.231,0.284 0.463,0.284 8.624,-0.004 17.248,-0.004 25.872,0 0.236,0.006 0.355,-0.064 0.458,-0.291 2.43,-5.525 4.591,-11.154 6.364,-16.912 1.193,-3.881 2.201,-7.815 3.215,-11.749 0.531,-2.042 0.944,-4.118 1.329,-6.201 0.396,-2.146 0.713,-4.317 1.023,-6.485 0.169,-1.194 0.24,-2.394 0.356,-3.612 z m -0.838,52.307 c -0.02,-0.025 -0.038,-0.053 -0.051,-0.076 -16.575,0 -33.143,0 -49.768,0 0.073,0.066 0.108,0.11 0.15,0.136 1.201,0.875 2.376,1.78 3.606,2.61 0.788,0.532 1.694,0.727 2.665,0.727 12.539,-0.013 25.079,-0.006 37.612,-0.019 0.371,-0.004 0.771,-0.073 1.103,-0.236 0.645,-0.309 1.271,-0.671 1.858,-1.077 0.967,-0.661 1.886,-1.374 2.825,-2.065 z m 1.678,-22.345 c 0.053,-0.02 0.119,-0.036 0.182,-0.056 2.009,-0.784 3.954,-1.699 5.813,-2.802 1.955,-1.166 3.786,-2.51 5.285,-4.251 1.56,-1.814 2.453,-3.846 2.182,-6.3 -0.158,-1.461 -1.08,-2.438 -2.538,-2.58 -2.455,-0.246 -4.565,0.531 -6.35,2.197 -0.717,0.674 -1.242,1.463 -1.441,2.472 -0.234,1.144 -0.554,2.269 -0.871,3.397 -0.744,2.629 -1.503,5.263 -2.262,7.923 z"
       id="path23"
       inkscape:connector-curvature="0"
       style="clip-rule:evenodd;fill:#3c3c3b;fill-rule:evenodd" /><path
       d="m 544.98,502.875 c -0.116,1.218 -0.188,2.418 -0.356,3.611 -0.311,2.168 -0.628,4.339 -1.023,6.485 -0.385,2.083 -0.798,4.159 -1.329,6.201 -1.014,3.934 -2.021,7.868 -3.215,11.749 -1.773,5.758 -3.935,11.387 -6.364,16.912 -0.103,0.227 -0.222,0.297 -0.458,0.291 -8.624,-0.004 -17.248,-0.004 -25.872,0 -0.231,0 -0.356,-0.04 -0.463,-0.284 -3.501,-8.12 -6.441,-16.429 -8.724,-24.974 -0.977,-3.67 -1.824,-7.37 -2.443,-11.115 -0.376,-2.292 -0.634,-4.605 -0.936,-6.914 -0.083,-0.641 -0.122,-1.293 -0.181,-1.963 17.113,10e-4 34.203,10e-4 51.364,10e-4 z"
       id="path25"
       inkscape:connector-curvature="0"
       style="clip-rule:evenodd;fill:#ffffff;fill-rule:evenodd" /><path
       d="m 544.142,555.182 c -0.938,0.691 -1.857,1.404 -2.823,2.064 -0.587,0.406 -1.214,0.769 -1.858,1.077 -0.332,0.163 -0.731,0.232 -1.103,0.236 -12.533,0.013 -25.073,0.006 -37.612,0.019 -0.971,0 -1.877,-0.194 -2.665,-0.727 -1.23,-0.83 -2.405,-1.735 -3.606,-2.61 -0.042,-0.025 -0.077,-0.069 -0.15,-0.136 16.625,0 33.192,0 49.768,0 0.011,0.024 0.029,0.051 0.049,0.077 z"
       id="path27"
       inkscape:connector-curvature="0"
       style="clip-rule:evenodd;fill:#ffffff;fill-rule:evenodd" /><path
       d="m 545.82,532.837 c 0.759,-2.66 1.518,-5.294 2.261,-7.922 0.317,-1.129 0.637,-2.254 0.871,-3.397 0.199,-1.009 0.725,-1.798 1.441,-2.472 1.784,-1.666 3.895,-2.443 6.35,-2.197 1.458,0.142 2.38,1.119 2.538,2.58 0.271,2.454 -0.622,4.485 -2.182,6.3 -1.499,1.741 -3.33,3.085 -5.285,4.251 -1.858,1.103 -3.804,2.018 -5.813,2.802 -0.062,0.019 -0.128,0.035 -0.181,0.055 z"
       id="path29"
       inkscape:connector-curvature="0"
       style="clip-rule:evenodd;fill:#ffffff;fill-rule:evenodd" /></g><g
     id="g31"
     transform="translate(-59.222631,-93.991)"><path
       stroke-miterlimit="10"
       d="m 442.656,332.508 c 4.995,0 9.76,0 14.613,0 0,-5.867 0,-11.543 0,-17.168 -4.974,0 -9.739,0 -14.613,0 0,5.769 0,11.306 0,17.168 z"
       id="path43"
       inkscape:connector-curvature="0"
       style="clip-rule:evenodd;fill:none;fill-rule:evenodd;stroke:#575756;stroke-miterlimit:10" /><path
       stroke-miterlimit="10"
       d="m 457.305,398.386 c 0,-5.934 0,-11.612 0,-17.386 -4.933,0 -9.693,0 -14.605,0 0,5.846 0,11.529 0,17.386 4.89,0 9.654,0 14.605,0 z"
       id="path45"
       inkscape:connector-curvature="0"
       style="clip-rule:evenodd;fill:none;fill-rule:evenodd;stroke:#575756;stroke-miterlimit:10" /><path
       stroke-miterlimit="10"
       d="m 596.025,398.503 c 0,-6.001 0,-11.69 0,-17.426 -4.999,0 -9.831,0 -14.687,0 0,5.866 0,11.498 0,17.426 4.885,0 9.646,0 14.687,0 z"
       id="path47"
       inkscape:connector-curvature="0"
       style="clip-rule:evenodd;fill:none;fill-rule:evenodd;stroke:#575756;stroke-miterlimit:10" /><path
       stroke-miterlimit="10"
       d="m 442.656,332.508 c 0,-5.862 0,-11.399 0,-17.168 4.874,0 9.64,0 14.613,0 0,5.625 0,11.301 0,17.168 -4.853,0 -9.618,0 -14.613,0 z"
       id="gLamp1"
       inkscape:connector-curvature="0"
       style="clip-rule:evenodd;fill:#9d9d9c;fill-rule:evenodd;stroke:#575756;stroke-miterlimit:10" /><path
       stroke-miterlimit="10"
       d="m 581.351,332.484 c 0,-5.762 0,-11.364 0,-17.174 4.911,0 9.735,0 14.701,0 0,5.754 0,11.357 0,17.174 -4.92,0 -9.744,0 -14.701,0 z"
       id="gLamp4"
       inkscape:connector-curvature="0"
       style="clip-rule:evenodd;fill:#9d9d9c;fill-rule:evenodd;stroke:#575756;stroke-miterlimit:10"
       inkscape:label="#gLamp4" /><path
       stroke-miterlimit="10"
       d="m 457.305,398.386 c -4.95,0 -9.715,0 -14.605,0 0,-5.856 0,-11.54 0,-17.386 4.912,0 9.673,0 14.605,0 0,5.773 0,11.452 0,17.386 z"
       id="gLamp3"
       inkscape:connector-curvature="0"
       style="clip-rule:evenodd;fill:#9d9d9c;fill-rule:evenodd;stroke:#575756;stroke-miterlimit:10" /><path
       stroke-miterlimit="10"
       d="m 596.025,398.503 c -5.041,0 -9.803,0 -14.687,0 0,-5.928 0,-11.56 0,-17.426 4.855,0 9.688,0 14.687,0 0,5.736 0,11.425 0,17.426 z"
       id="gLamp6"
       inkscape:connector-curvature="0"
       style="clip-rule:evenodd;fill:#9d9d9c;fill-rule:evenodd;stroke:#575756;stroke-miterlimit:10" /><path
       stroke-miterlimit="10"
       d="m 442.693,365.485 c 0,-5.862 0,-11.4 0,-17.169 4.872,0 9.64,0 14.618,0 0,5.627 0,11.304 0,17.169 -4.858,0 -9.626,0 -14.618,0 z"
       id="gLamp2"
       inkscape:connector-curvature="0"
       style="clip-rule:evenodd;fill:#9d9d9c;fill-rule:evenodd;stroke:#575756;stroke-miterlimit:10"
       inkscape:label="#gLamp2" /><path
       stroke-miterlimit="10"
       d="m 581.373,365.422 c 0,-5.862 0,-11.399 0,-17.168 4.877,0 9.641,0 14.617,0 0,5.627 0,11.303 0,17.168 -4.851,0 -9.623,0 -14.617,0 z"
       id="gLamp5"
       inkscape:connector-curvature="0"
       style="clip-rule:evenodd;fill:#9d9d9c;fill-rule:evenodd;stroke:#575756;stroke-miterlimit:10" /></g><g
     id="g167"
     transform="translate(3.497,-87.299533)"
     display="none"
     style="display:none"><path
       d="m 39.886,597.563 c 0.005,0.05 0,0.072 0.011,0.086 0.187,0.298 0.371,0.597 0.562,0.893 1.42,2.177 2.734,4.438 4.442,6.428 1.901,2.205 3.92,4.294 6.428,5.836 1.79,1.098 3.716,1.798 5.835,1.801 11.276,0.018 22.557,0.013 33.83,-0.003 0.606,0 1.222,-0.094 1.815,-0.218 1.901,-0.39 3.555,-1.319 5.067,-2.513 2.45,-1.938 4.599,-4.184 6.494,-6.664 1.373,-1.797 2.644,-3.673 3.961,-5.517 0.02,-0.033 0.027,-0.069 0.057,-0.135 -5.455,0 -10.872,0 -16.308,0 0.019,-0.071 0.019,-0.113 0.035,-0.146 0.737,-1.957 1.474,-3.912 2.227,-5.864 0.038,-0.097 0.16,-0.203 0.263,-0.232 3.108,-0.794 6.083,-1.916 8.93,-3.391 2.419,-1.24 4.669,-2.73 6.61,-4.648 2.48,-2.445 4.136,-5.31 4.441,-8.851 0.125,-1.465 -0.037,-2.898 -0.597,-4.274 -1.713,-4.185 -6.146,-6.467 -10.6,-5.477 -0.544,0.121 -1.08,0.265 -1.652,0.4 0.716,-4.211 0.958,-8.415 0.818,-12.64 -19.06,0 -38.101,0 -57.146,0 -0.006,0.054 -0.015,0.094 -0.015,0.126 -0.072,3.685 0.072,7.355 0.612,11.01 0.447,3.033 1.038,6.033 1.765,9.006 1.899,7.752 4.394,15.308 7.333,22.73 0.295,0.739 0.593,1.477 0.905,2.256 -5.4,10e-4 -10.759,10e-4 -16.123,10e-4 z"
       id="path169"
       inkscape:connector-curvature="0"
       style="clip-rule:evenodd;fill:#ffffff;fill-rule:evenodd" /><path
       d="m 39.886,597.563 c 5.365,0 10.724,0 16.125,0 -0.312,-0.779 -0.61,-1.517 -0.905,-2.256 -2.939,-7.423 -5.434,-14.979 -7.333,-22.73 -0.728,-2.973 -1.318,-5.973 -1.765,-9.006 -0.541,-3.654 -0.684,-7.325 -0.612,-11.01 0,-0.032 0.008,-0.072 0.015,-0.126 19.045,0 38.086,0 57.146,0 0.141,4.225 -0.102,8.429 -0.818,12.64 0.572,-0.136 1.108,-0.279 1.652,-0.4 4.454,-0.99 8.887,1.292 10.6,5.477 0.56,1.376 0.722,2.81 0.597,4.274 -0.306,3.541 -1.961,6.405 -4.441,8.851 -1.941,1.918 -4.191,3.408 -6.61,4.648 -2.847,1.475 -5.822,2.597 -8.93,3.391 -0.103,0.029 -0.225,0.136 -0.263,0.232 -0.753,1.952 -1.49,3.907 -2.227,5.864 -0.016,0.032 -0.016,0.074 -0.035,0.146 5.436,0 10.853,0 16.308,0 -0.03,0.065 -0.038,0.102 -0.057,0.135 -1.317,1.844 -2.588,3.72 -3.961,5.517 -1.895,2.48 -4.043,4.727 -6.494,6.664 -1.512,1.193 -3.166,2.123 -5.067,2.513 -0.593,0.124 -1.208,0.218 -1.815,0.218 -11.273,0.016 -22.553,0.021 -33.83,0.003 -2.119,-0.003 -4.045,-0.703 -5.835,-1.801 -2.508,-1.542 -4.526,-3.631 -6.428,-5.836 -1.708,-1.989 -3.022,-4.251 -4.442,-6.428 -0.19,-0.296 -0.375,-0.595 -0.562,-0.893 -0.013,-0.014 -0.008,-0.037 -0.013,-0.087 z m 56.301,-39.105 c -14.833,0 -29.602,0 -44.396,0 0.053,0.58 0.084,1.146 0.159,1.696 0.257,1.995 0.481,3.994 0.807,5.978 0.535,3.235 1.267,6.432 2.113,9.606 1.973,7.387 4.513,14.565 7.54,21.583 0.092,0.214 0.2,0.245 0.399,0.245 7.454,-0.003 14.908,-0.003 22.361,0 0.206,0.007 0.309,-0.053 0.396,-0.251 2.1,-4.774 3.968,-9.642 5.502,-14.617 1.031,-3.354 1.901,-6.753 2.778,-10.154 0.459,-1.766 0.816,-3.557 1.149,-5.358 0.342,-1.857 0.616,-3.732 0.883,-5.606 0.145,-1.031 0.209,-2.065 0.309,-3.122 z m -0.726,45.208 c -0.018,-0.021 -0.035,-0.043 -0.046,-0.063 -14.323,0 -28.642,0 -43.011,0 0.061,0.055 0.093,0.094 0.133,0.115 1.033,0.757 2.052,1.54 3.114,2.258 0.681,0.46 1.464,0.627 2.305,0.627 10.836,-0.014 21.673,-0.006 32.506,-0.016 0.323,-0.004 0.668,-0.064 0.955,-0.205 0.555,-0.268 1.098,-0.579 1.606,-0.931 0.833,-0.568 1.626,-1.187 2.438,-1.785 z m 1.45,-19.313 c 0.046,-0.016 0.103,-0.029 0.157,-0.046 1.736,-0.677 3.417,-1.47 5.024,-2.421 1.69,-1.009 3.272,-2.168 4.569,-3.675 1.347,-1.566 2.119,-3.325 1.884,-5.445 -0.138,-1.262 -0.933,-2.107 -2.193,-2.229 -2.121,-0.211 -3.947,0.458 -5.488,1.898 -0.622,0.584 -1.074,1.267 -1.245,2.136 -0.204,0.988 -0.481,1.962 -0.754,2.937 -0.641,2.271 -1.296,4.546 -1.954,6.845 z"
       id="path171"
       inkscape:connector-curvature="0"
       style="clip-rule:evenodd;fill:#3c3c3b;fill-rule:evenodd" /><path
       d="m 96.187,558.458 c -0.1,1.057 -0.163,2.091 -0.31,3.121 -0.267,1.874 -0.541,3.749 -0.883,5.606 -0.333,1.802 -0.69,3.593 -1.149,5.358 -0.877,3.401 -1.748,6.801 -2.778,10.154 -1.534,4.976 -3.402,9.843 -5.502,14.617 -0.087,0.198 -0.19,0.258 -0.396,0.251 -7.453,-0.003 -14.907,-0.003 -22.361,0 -0.2,0 -0.308,-0.031 -0.399,-0.245 -3.027,-7.018 -5.567,-14.196 -7.54,-21.583 -0.846,-3.175 -1.578,-6.371 -2.113,-9.606 -0.326,-1.983 -0.55,-3.982 -0.807,-5.978 -0.075,-0.551 -0.106,-1.116 -0.159,-1.696 14.795,10e-4 29.564,10e-4 44.397,10e-4 z"
       id="path173"
       inkscape:connector-curvature="0"
       style="clip-rule:evenodd;fill:#ffffff;fill-rule:evenodd" /><path
       d="m 95.461,603.666 c -0.812,0.598 -1.604,1.217 -2.439,1.786 -0.509,0.352 -1.051,0.663 -1.606,0.931 -0.287,0.141 -0.632,0.201 -0.955,0.205 -10.833,0.01 -21.67,0.002 -32.506,0.016 -0.841,0 -1.625,-0.167 -2.305,-0.627 -1.062,-0.718 -2.081,-1.501 -3.114,-2.258 -0.04,-0.021 -0.072,-0.061 -0.133,-0.115 14.37,0 28.688,0 43.011,0 0.012,0.019 0.029,0.042 0.047,0.062 z"
       id="path175"
       inkscape:connector-curvature="0"
       style="clip-rule:evenodd;fill:#ffffff;fill-rule:evenodd" /><path
       d="m 96.911,584.353 c 0.658,-2.299 1.313,-4.573 1.955,-6.846 0.272,-0.975 0.55,-1.948 0.754,-2.937 0.171,-0.869 0.624,-1.552 1.245,-2.136 1.541,-1.44 3.367,-2.109 5.488,-1.898 1.26,0.122 2.055,0.968 2.193,2.229 0.234,2.12 -0.538,3.879 -1.884,5.445 -1.297,1.507 -2.879,2.666 -4.569,3.675 -1.606,0.951 -3.288,1.744 -5.024,2.421 -0.056,0.017 -0.112,0.031 -0.158,0.047 z"
       id="path177"
       inkscape:connector-curvature="0"
       style="clip-rule:evenodd;fill:#ffffff;fill-rule:evenodd" /></g></svg>